<svg width="61" height="64" viewBox="0 0 61 64" fill="none" xmlns="http://www.w3.org/2000/svg">
<path d="M51.1154 48.0172C51.445 47.717 51.8021 47.4626 52.237 47.335C52.895 46.9413 53.617 46.6876 54.3155 46.3815C54.5777 46.2383 54.8557 46.1493 55.1559 46.1317C55.4587 45.9512 55.7857 45.8367 56.1323 45.7772C56.2507 45.734 56.369 45.6909 56.4881 45.6477C56.6091 45.5823 56.7314 45.6373 56.853 45.6438C57.1068 45.6392 57.3147 45.4581 57.5691 45.4567C57.7052 45.5378 57.6077 45.5614 57.541 45.6032C57.8974 45.3541 58.3036 45.235 58.7228 45.1533C58.9105 44.9734 59.1538 44.9342 59.3905 44.9381C59.6868 44.9427 59.9589 44.8505 60.242 44.8008C60.242 46.4358 60.242 48.0702 60.242 49.7052C59.8451 49.7686 59.4422 49.7653 59.0426 49.8078C58.5044 49.8647 58.0073 50.0786 57.6188 50.142C58.2977 49.8654 59.178 49.9772 60.0131 49.7856C60.0923 49.7673 60.174 49.7679 60.2427 49.8268C60.2427 50.4324 60.2427 51.038 60.2427 51.643C59.9621 51.8673 59.6162 51.8006 59.297 51.8529C59.2126 51.8667 59.1244 51.8411 58.9687 51.881C59.0001 51.8752 59.0557 51.9307 59.038 51.8948C59.0302 51.8784 59.0341 51.8693 59.0511 51.8673C59.348 51.8398 59.6482 51.847 59.9419 51.7757C60.0785 51.743 60.1583 51.8595 60.2427 51.9451C60.2427 52.7927 60.2427 53.6403 60.2427 54.4879C60.0112 54.5978 59.7712 54.4886 59.5351 54.5141C59.3716 54.5317 59.2041 54.5206 59.1087 54.5167C58.9988 54.533 59.0563 54.5893 59.0374 54.5533C59.0295 54.5383 59.0348 54.5291 59.0531 54.5278C59.3421 54.5082 59.6319 54.516 59.9216 54.5226C60.0458 54.5252 60.1551 54.5782 60.2427 54.6691C60.2427 54.8306 60.2427 54.9921 60.2427 55.1537C59.9504 55.3008 59.6149 55.2354 59.3153 55.3453C58.9458 55.2093 58.573 55.2956 58.2009 55.3329C57.9445 55.3787 57.6829 55.4087 57.437 55.5415C57.4972 55.6429 57.5842 55.5997 57.6528 55.6141C57.9844 55.6461 58.3154 55.6756 58.643 55.7384C59.0191 55.8096 59.3964 55.8692 59.7836 55.7946C59.9399 55.7645 60.1073 55.7593 60.2427 55.8809C60.2427 56.5873 60.2427 57.2936 60.2427 57.9999C60.1708 58.1006 60.0184 58.202 60.2427 58.3027C60.2427 60.1091 60.2394 61.9154 60.2479 63.7218C60.2486 63.9023 60.212 63.9409 60.0308 63.9389C58.9916 63.9278 57.9524 63.9337 56.9125 63.9337C56.8988 63.9141 56.8994 63.8958 56.9132 63.8781C56.6705 63.8918 56.4207 63.8127 56.1859 63.9337C55.5803 63.9337 54.9747 63.9337 54.3697 63.9337C54.0617 63.8042 54.0257 63.4451 53.7923 63.2097C53.7203 63.4831 53.9531 63.6996 53.825 63.9337C52.9571 63.9337 52.0892 63.9337 51.2214 63.9337C51.0265 63.5753 51.1239 63.1914 51.1435 62.8206C51.1599 62.5034 51.2462 62.1908 51.362 61.8919C51.4535 61.436 51.6478 61.0018 51.6393 60.5257C51.6393 60.4949 51.6432 60.4642 51.6504 60.4341C51.723 60.2549 51.7877 60.0724 51.8727 59.8985C52.0912 59.4505 52.292 58.9894 52.7131 58.6807C53.0506 58.3524 53.3946 58.0326 53.7563 57.7298C54.2291 57.3341 54.7177 56.9666 55.3148 56.7763C55.7569 56.6357 56.1329 56.3485 56.5934 56.2406C56.8811 56.1733 57.161 56.0889 57.4599 56.0961C57.3854 56.0837 57.3095 56.1203 57.2382 56.0968C56.7549 55.9372 56.3533 56.1576 55.9557 56.378C55.4286 56.6703 54.8871 56.9345 54.3593 57.2249C53.9767 57.4355 53.6647 57.7409 53.3449 58.0313C53.1808 58.1804 52.997 58.3053 52.8459 58.4675C52.0349 59.0548 51.566 59.8867 51.2017 60.7886C51.0579 61.1457 51.0807 61.5328 51.0474 61.9102C51.0029 62.4086 50.9637 62.9076 50.9016 63.4033C50.8793 63.5799 50.9598 63.7643 50.8577 63.9324C50.1311 63.9324 49.4045 63.9324 48.6779 63.9324C48.5668 63.8748 48.5295 63.7761 48.5236 63.659C48.4915 62.9945 48.3666 62.3347 48.4176 61.6656C48.4098 61.8814 48.3817 62.0999 48.4183 62.3144C48.4556 62.5328 48.4353 62.7519 48.466 62.9717C48.5105 63.2915 48.5805 63.6296 48.3751 63.9324C48.2744 63.9324 48.173 63.9324 48.0723 63.9324C47.9526 63.7146 47.7054 63.5916 47.6479 63.4183C47.6734 63.5354 47.8277 63.7159 47.7094 63.9324C46.8009 63.9324 45.8932 63.9324 44.9848 63.9324C44.8239 63.7395 44.9174 63.5099 44.8965 63.2967C44.8867 63.1953 44.8926 63.0926 44.8932 62.99C44.8821 63.3039 44.9292 63.6191 44.8638 63.9317C44.6218 63.9317 44.3792 63.9317 44.1372 63.9317C43.9521 63.6878 44.0038 63.3961 43.973 63.1214C44.0044 63.0959 43.9181 63.0828 43.9541 63.1011C43.9619 63.1051 43.9554 63.1096 43.9469 63.1221C43.835 63.2882 43.7958 63.179 43.7677 63.0717C43.7193 62.8866 43.7657 62.6891 43.6957 62.506C43.5309 61.6983 43.6892 60.9057 43.8023 60.1104C43.6983 60.8095 43.5878 61.508 43.6218 62.2189C43.7088 62.6695 43.7219 63.1365 43.9076 63.5661C43.9619 63.6911 43.9979 63.814 43.8945 63.9324C43.5316 63.9324 43.1679 63.9324 42.805 63.9324C42.5107 63.3941 42.4322 62.8206 42.5303 62.2195C42.4845 61.8389 42.5172 61.4609 42.5774 61.0855C42.6218 60.8089 42.5977 60.5237 42.6617 60.3255C42.595 60.9168 42.4662 61.578 42.5283 62.2542C42.423 62.5387 42.5394 62.8278 42.5087 63.1149C42.4793 63.3902 42.5506 63.6793 42.3812 63.9324C41.735 63.9324 41.0895 63.9324 40.4434 63.9324C40.6173 63.6721 40.4499 63.4013 40.4512 63.1384C40.4571 62.1816 40.4185 61.2156 40.6749 60.2909C40.8842 59.5381 41.0176 58.752 41.4244 58.0607C41.6592 57.6618 41.996 57.2962 42.3629 57.1163C42.7834 56.9097 42.8586 56.5264 43.1182 56.2511C43.304 56.1105 43.4367 55.9359 43.4688 55.6985C43.5231 55.6396 43.5309 55.5507 43.6532 55.4748C43.5335 55.5238 43.474 55.5585 43.4067 55.5722C43.3563 55.6121 43.3125 55.7057 43.2432 55.5925C43.2634 55.3734 43.4531 55.2642 43.5545 55.1131C43.423 55.2348 43.338 55.4199 43.1555 55.5075C42.8122 55.8698 42.4688 56.2328 42.1261 56.5938C42.0398 56.533 42.1497 56.4787 42.1117 56.427C41.9718 56.4074 41.9404 56.686 41.7762 56.5618C41.6742 56.4846 41.8462 56.4434 41.837 56.3675C41.8645 56.2308 41.9463 56.1229 42.0346 55.996C41.9371 56.1059 41.9031 56.2485 41.7664 56.2962C41.6546 56.3518 41.65 56.478 41.5892 56.5676C41.5611 56.6088 41.5362 56.6605 41.4741 56.6409C41.3956 56.6154 41.4054 56.5493 41.4231 56.4911C41.4407 56.4336 41.4701 56.3806 41.4937 56.325C41.7494 55.7312 42.1039 55.189 42.391 54.6122C42.5597 54.2727 42.6801 53.915 42.9044 53.5958C43.3897 52.9052 44.0652 52.5043 44.8324 52.2264C44.9383 52.1878 45.0332 52.1518 45.1031 52.0635C45.3837 52.1165 45.5171 51.9183 45.6741 51.7437C45.9363 51.4527 46.1868 51.1453 46.5544 50.9733C46.576 50.9543 46.5975 50.9353 46.6191 50.9164C46.7846 50.6816 46.9821 50.4887 47.2712 50.4135C47.3882 50.5089 47.3725 50.6365 47.3575 50.7647C47.1319 51.0969 46.7767 51.2735 46.4667 51.5043C46.162 51.5946 45.9782 51.8425 45.7539 52.0406C45.6165 52.1623 45.8278 52.1681 45.8049 52.2447C45.8108 52.3624 45.7166 52.4186 45.6492 52.4899C45.23 52.9346 44.837 53.4042 44.368 53.7992C44.2235 53.93 44.096 54.0778 43.9528 54.2099C44.0875 54.0909 44.215 53.9647 44.3399 53.8365C45.0306 53.1969 45.6623 52.5017 46.2692 51.7842C46.6394 51.3441 47.158 51.0688 47.5341 50.6352C47.7754 50.4717 48.0527 50.3441 48.1384 50.0263C48.3634 49.6751 48.6936 49.4344 49.0631 49.282C49.4935 49.1041 49.8721 48.8406 50.2855 48.6365C50.411 48.5744 50.5281 48.4959 50.6628 48.4514C50.8813 48.3775 51.0389 48.2389 51.1154 48.0172Z" fill="#BE482C"/>
<path d="M10.2241 54.5588C10.3614 54.8472 10.4955 55.1376 10.638 55.424C10.6825 55.5136 10.7728 55.5359 10.8715 55.528C11.1953 55.5012 11.5124 55.5699 11.8329 55.5875C12.0769 55.6013 12.2776 55.7118 12.3797 55.9093C12.517 56.1755 12.7171 56.2611 12.9938 56.3076C13.6066 56.4096 13.8322 56.6863 13.8472 57.3043C13.8505 57.439 13.8701 57.5652 13.9303 57.6816C14.0663 57.9446 13.9865 58.1623 13.8008 58.3618C13.7184 58.4651 13.7864 58.5691 13.7975 58.6731C13.9708 58.8425 14.1599 59.004 14.0212 59.2892C13.9669 59.401 14.0487 59.4396 14.1337 59.4926C14.396 59.6574 14.6307 59.8386 14.5477 60.2146C14.5183 60.348 14.6484 60.4206 14.7419 60.4978C14.8714 60.605 14.9989 60.7005 15.0735 60.8738C15.2527 61.2924 15.2586 61.3611 14.859 61.5475C14.1795 61.864 13.4575 62.0249 12.708 62.0576C12.6485 62.0602 12.5732 62.0667 12.5307 62.036C12.2345 61.8222 12.0677 61.9896 11.8473 62.1943C11.587 62.4356 11.3404 62.7064 11.0004 62.8607C10.8342 62.9359 10.6858 62.9621 10.5092 62.9353C10.1423 62.8797 9.79438 62.7561 9.43925 62.6606C8.80356 62.4899 8.19664 62.5926 7.61719 62.8666C7.16855 63.0785 6.79969 62.9379 6.44325 62.6691C6.39617 62.6338 6.3615 62.5808 6.31245 62.5494C5.73693 62.1799 5.37003 62.2309 4.78143 62.7777C4.37268 63.1576 3.97439 63.55 3.57217 63.9366C2.38123 63.9366 1.19094 63.9366 0 63.9366C0.253754 63.7005 0.474807 63.4395 0.79527 63.2655C1.23018 63.0294 1.64351 63.1014 1.99668 63.3264C2.60425 63.7129 2.88416 63.4997 3.3642 63.0079C3.96588 62.3905 4.57803 61.779 5.4387 61.5056C5.94817 61.3434 6.37131 61.4997 6.69832 61.8549C7.01878 62.2028 7.34186 62.2368 7.75453 62.087C8.47525 61.8261 9.19138 61.9595 9.88201 62.2015C10.3372 62.3611 10.7021 62.3192 11.0239 61.951C11.2031 61.7463 11.4085 61.5645 11.5824 61.3558C11.8126 61.0792 12.0912 61.0328 12.3888 61.1884C12.9382 61.4755 13.4261 61.1838 13.9303 61.0537C14.0415 61.0249 14.0585 60.9275 13.931 60.864C13.7616 60.7803 13.6517 60.6449 13.6726 60.4579C13.704 60.1675 13.5471 60.1675 13.341 60.2035C13.1782 60.2316 13.0193 60.3055 12.8564 60.1695C12.5974 59.9543 12.5824 59.6986 12.8388 59.4847C12.9081 59.4265 12.9833 59.3749 13.0513 59.316C13.1573 59.2238 13.1586 59.1453 13.0409 59.0479C12.6857 58.7549 12.6668 58.4481 12.999 58.1453C13.1566 58.0015 13.2554 57.8824 13.1174 57.6712C13.0716 57.6006 13.0448 57.4953 13.084 57.4083C13.2135 57.1225 13.0618 57.0375 12.8146 56.9891C12.3993 56.908 12.0049 56.7896 11.8761 56.3056C11.8519 56.2134 11.757 56.2167 11.672 56.216C11.3797 56.2128 11.088 56.2056 10.7963 56.1964C10.3012 56.1807 10.1266 56.0231 10.0403 55.5293C10.0265 55.4521 9.98861 55.3782 9.95526 55.3057C9.76037 54.8792 9.61387 54.4482 9.74402 53.9676C9.80222 53.753 9.71916 53.651 9.4798 53.6608C9.22997 53.6706 8.97687 53.6543 8.72769 53.6288C8.2797 53.583 8.06584 53.2652 8.13974 52.827C8.24177 52.2227 8.06388 51.6759 7.64401 51.2521C7.20713 50.8107 6.88405 50.3261 6.70486 49.7309C6.56359 49.26 6.5976 49.037 7.07437 48.6668C7.27449 48.5112 7.29477 48.4196 7.11165 48.2561C6.85659 48.0279 6.91872 47.7761 7.0796 47.5236C7.47004 46.9102 7.64662 46.2405 7.59953 45.5139C7.58711 45.3216 7.55964 45.1352 7.47004 44.9599C7.28496 44.5957 7.30916 44.2654 7.63681 43.9835C7.75846 43.8789 7.86768 43.7592 7.98213 43.6467C8.37322 43.5761 8.66164 43.3236 8.95267 43.0843C9.09067 42.9705 9.16849 42.8194 9.06712 42.6337C8.72573 42.3302 8.68191 41.9738 8.8755 41.5729C8.90166 41.5192 8.91408 41.4584 8.92913 41.4002C9.0874 40.7867 9.06124 40.6756 8.50206 40.3813C7.80489 40.015 7.38698 39.5036 7.27907 38.6887C7.20059 38.0935 6.85266 37.5651 6.58648 37.0249C6.45241 36.7528 6.3288 36.4775 6.2379 36.191C6.16138 35.9504 6.12606 35.6999 6.28302 35.4677C6.40009 35.1695 6.63422 34.9759 6.88798 34.8039C6.9658 34.7516 7.05933 34.6751 7.13977 34.8098C7.18686 34.9654 7.20975 35.1172 7.07568 35.246C6.53285 35.6253 6.4753 35.9085 6.80296 36.6436C7.05736 37.2126 7.32354 37.777 7.50143 38.3761C7.55833 38.5677 7.58973 38.7665 7.63027 38.9621C7.72837 39.4323 8.03903 39.7318 8.43339 39.964C8.48506 39.9947 8.54196 40.017 8.59101 40.051C9.30126 40.5461 9.35358 40.7148 9.05666 41.5382C9.02265 41.633 8.9893 41.7279 8.95529 41.8227C8.86831 42.0673 8.91212 42.2635 9.12467 42.4381C9.41374 42.6755 9.43206 42.9011 9.19073 43.1863C9.05535 43.3465 8.88793 43.4799 8.73031 43.6199C8.55765 43.7736 8.38369 43.9266 8.20253 44.0712C7.86114 44.3432 7.71529 44.6539 7.97624 45.0607C8.05995 45.145 8.02268 45.2464 8.0096 45.3406C7.95466 45.7291 7.93765 46.1247 7.81143 46.5008C7.82974 46.905 7.61327 47.2575 7.56356 47.6466C7.41314 47.8212 7.48705 47.9795 7.59692 48.1378C7.7892 48.4131 7.782 48.6341 7.58776 48.8794C7.44781 49.056 7.17574 49.1541 7.19144 49.4209C7.20975 49.7414 7.40726 50.0023 7.56029 50.2718C7.64401 50.4183 7.77154 50.5399 7.8788 50.6727C7.88991 50.7328 7.86572 50.757 7.80555 50.7459C7.782 50.7276 7.75911 50.7093 7.73557 50.691C7.65709 50.6119 7.50209 50.638 7.48378 50.5288C7.51778 50.5805 7.60477 50.6393 7.62177 50.7433C8.29932 51.2861 8.56746 52.0101 8.53934 52.8557C8.53149 53.0938 8.64267 53.2115 8.85065 53.2462C9.0874 53.2861 9.33003 53.3299 9.56744 53.3194C10.1057 53.2959 10.2489 53.4685 10.0488 53.9466C10.0422 54.2331 10.0246 54.5208 10.0985 54.8021C10.0357 54.5764 10.0089 54.3515 10.105 54.1258C10.1129 54.1114 10.1168 54.0957 10.1155 54.0794C10.2443 54.082 10.1966 54.1775 10.2012 54.2442C10.2097 54.3469 10.1802 54.4554 10.2241 54.5588Z" fill="#A63529"/>
<path d="M50.8592 63.9336C50.7408 63.5994 50.8441 63.2593 50.852 62.9245C50.8611 62.5223 50.9252 62.122 50.9422 61.7165C50.9684 61.0946 51.1221 60.4785 51.4896 59.9559C51.7859 59.5354 51.9985 59.0515 52.3981 58.7068C52.5204 58.6008 52.661 58.5165 52.7931 58.4223C52.9154 58.3621 52.9409 58.423 52.9069 58.5243C52.8781 58.6107 52.8147 58.678 52.7368 58.7284C52.3739 59.0639 52.158 59.4968 51.9429 59.9304C51.7866 60.0573 51.7414 60.2372 51.7087 60.4229C51.7035 60.4406 51.7015 60.4589 51.7015 60.4778C51.5465 60.9311 51.4628 61.3967 51.4681 61.8774C51.2222 62.5432 51.1816 63.2338 51.2228 63.9343C51.1012 63.9336 50.9802 63.9336 50.8592 63.9336Z" fill="#EFE6E2"/>
<path d="M60.2454 4.05197C59.7039 4.22659 59.1532 4.36655 58.5796 4.3103C58.0113 4.25406 57.4508 4.15857 56.9544 3.83942C56.8485 3.7714 56.7177 3.74328 56.598 3.69685C56.632 3.65368 56.6719 3.63014 56.7275 3.65957C56.751 3.41301 56.751 3.41301 56.9885 3.5013C56.855 3.4359 56.7203 3.39535 56.5647 3.40974C56.4489 3.4202 56.3188 3.4274 56.2324 3.31295C56.2579 3.08208 56.4149 3.02518 56.6098 3.04742C56.7347 3.06181 56.8629 3.07881 56.9799 3.13244C57.3737 3.1913 57.6464 3.49868 58.0041 3.63145C58.4103 3.88193 58.8641 3.73216 59.3128 3.79953C59.2938 3.78579 59.1447 3.67592 59.1447 3.67592C59.543 3.5909 59.8582 3.31295 60.246 3.20373C60.246 3.30444 60.246 3.40581 60.246 3.50653C60.006 3.77598 59.683 3.88716 59.3474 3.97349C59.5718 3.9336 59.7732 3.8368 59.974 3.73543C60.057 3.69358 60.1375 3.60071 60.2454 3.68835C60.2454 3.80999 60.2454 3.93098 60.2454 4.05197Z" fill="#B3533C"/>
<path d="M60.242 55.8793C59.3394 56.0395 58.465 55.7916 57.5808 55.6916C57.452 55.6124 57.522 55.5588 57.605 55.5072C58.159 55.4293 58.6953 55.2096 59.2708 55.3044C59.448 55.29 59.6266 55.2737 59.7992 55.2364C59.9889 55.1952 60.1288 55.2462 60.242 55.3953C60.242 55.5562 60.242 55.7177 60.242 55.8793Z" fill="#EEE6E1"/>
<path d="M60.2447 49.8239C59.628 50.0201 58.9799 49.9698 58.3507 50.0699C58.0446 50.1182 57.7471 50.2294 57.3906 50.166C58.3304 49.7939 59.2591 49.5787 60.244 49.7036C60.2447 49.7435 60.2447 49.7834 60.2447 49.8239Z" fill="#E8D9D2"/>
<path d="M43.8968 63.9334C43.7752 63.4671 43.6503 63.0014 43.5738 62.524C43.5581 62.4266 43.5201 62.333 43.5378 62.231C43.7667 62.2173 43.664 62.4651 43.7811 62.5397C43.9053 62.7241 43.7968 62.9347 43.8628 63.1728C43.8798 63.0348 43.8916 62.9373 43.904 62.8406C44.1179 63.18 44.0826 63.5665 44.1388 63.9334C44.0577 63.9334 43.9773 63.9334 43.8968 63.9334Z" fill="#AB5945"/>
<path d="M48.376 63.9343C48.4447 63.4137 48.4087 62.8958 48.3498 62.3765C48.3178 62.092 48.2969 61.8023 48.4074 61.4727C48.5225 61.8657 48.4924 62.2208 48.5022 62.5727C48.5146 63.0325 48.5755 63.4863 48.6788 63.935C48.5781 63.9343 48.4774 63.9343 48.376 63.9343Z" fill="#D0AA9B"/>
<path d="M42.5594 62.2423C42.581 62.6406 42.5038 63.05 42.7013 63.4287C42.7831 63.5856 42.8223 63.7557 42.8047 63.9349C42.6634 63.9349 42.5221 63.9349 42.3809 63.9349C42.3979 63.4738 42.4136 63.0121 42.4325 62.551C42.4371 62.4444 42.4181 62.3299 42.5025 62.2403C42.5228 62.2109 42.5417 62.2116 42.5594 62.2423Z" fill="#E5D8D1"/>
<path d="M53.8257 63.9362C53.7733 63.7359 53.717 63.5369 53.6699 63.3353C53.6509 63.2541 53.5887 63.1277 53.6862 63.0976C53.7897 63.0655 53.935 63.095 53.9743 63.2423C54.0463 63.5094 54.2184 63.7162 54.371 63.9362C54.1896 63.9362 54.0076 63.9362 53.8257 63.9362Z" fill="#E9DED9"/>
<path d="M60.2442 54.6687C59.8289 54.5085 59.3731 54.687 58.9297 54.5026C59.3855 54.4156 59.8139 54.3921 60.2442 54.4869C60.2442 54.5477 60.2442 54.6085 60.2442 54.6687Z" fill="#E2CDC3"/>
<path d="M47.7105 63.9346C47.6883 63.6727 47.5979 63.4259 47.5469 63.1602C47.6405 63.4816 48.0679 63.5627 48.0738 63.9346C47.9527 63.9346 47.8316 63.9346 47.7105 63.9346Z" fill="#E2CEC5"/>
<path d="M60.2414 51.9434C59.832 51.7727 59.401 51.9735 58.9844 51.8499C59.4056 51.7937 59.8267 51.7355 60.2414 51.6406C60.2414 51.742 60.2414 51.8427 60.2414 51.9434Z" fill="#D2AE9F"/>
<path d="M60.2442 55.3945C59.9299 55.223 59.5935 55.3795 59.2714 55.331C59.2524 55.316 59.2472 55.3029 59.2563 55.2924C59.2642 55.2832 59.2721 55.2787 59.2806 55.2787C59.5941 55.1765 59.9136 55.1235 60.2442 55.1523C60.2442 55.2328 60.2442 55.314 60.2442 55.3945Z" fill="#D0A999"/>
<path d="M60.2455 3.68914C59.9345 3.80894 59.6557 4.03347 59.2852 3.96866C59.6544 3.91367 59.9129 3.63612 60.2455 3.50781C60.2455 3.56804 60.2455 3.62826 60.2455 3.68914Z" fill="#E2C5B8"/>
<path d="M56.1855 63.9302C56.1999 63.8883 56.1679 63.8143 56.236 63.8104C56.4638 63.7973 56.6942 63.7705 56.9187 63.7953C57.1216 63.8176 56.9122 63.8824 56.9128 63.9295C56.6706 63.9302 56.4278 63.9302 56.1855 63.9302Z" fill="#DEC7BC"/>
<path d="M44.8652 63.9333C44.8652 63.5948 44.8652 63.2564 44.8652 62.918C44.9713 63.2518 44.8849 63.602 44.9863 63.9333C44.9458 63.9333 44.9058 63.9333 44.8652 63.9333Z" fill="#DBC1B5"/>
<path d="M60.244 58.3017C60.1281 58.3272 60.0398 58.2742 59.9121 58.1773C60.1072 58.2113 60.079 57.9691 60.244 57.9986C60.244 58.0994 60.244 58.2009 60.244 58.3017Z" fill="#C59280"/>
<path d="M56.2378 3.3193C56.7846 3.34611 56.7905 3.34742 57.0939 3.524C57.0207 3.60967 56.9612 3.51354 56.8951 3.5083C56.7983 3.50111 56.6257 3.37292 56.7362 3.6378C56.7637 3.70385 56.642 3.66984 56.5969 3.69796C56.0037 3.7117 55.4177 3.62799 54.8285 3.58286C54.3962 3.54951 53.9776 3.69273 53.5558 3.77383C53.4374 3.79672 53.3157 3.81634 53.2039 3.8582C52.7729 4.02039 52.4204 3.94649 52.0836 3.60706C51.858 3.37946 51.531 3.4913 51.2484 3.54951C50.945 3.61229 50.6598 3.74309 50.3433 3.76794C50.2177 3.77775 50.0935 3.78495 49.994 3.73197C49.6847 3.56782 49.3983 3.63583 49.1013 3.76337C48.7338 3.92163 48.3244 3.70647 48.2158 3.31145C48.1628 3.11786 48.0987 2.96156 47.894 2.84187C47.6377 2.69211 47.6403 2.38603 47.6501 2.1107C47.6527 2.03091 47.6704 1.95177 47.6835 1.87264C47.7077 1.72418 47.7887 1.55545 47.7443 1.43249C47.6848 1.26768 47.4755 1.37494 47.3375 1.33374C47.3277 1.33112 47.3179 1.33047 47.3081 1.32851C47.157 1.29188 47.07 1.0342 46.917 1.12511C46.6619 1.27749 46.3853 1.42857 46.2139 1.68363C45.9431 2.0865 45.588 2.37884 45.1544 2.5855C44.7633 2.75358 44.4213 3.01649 44.025 3.17476C43.488 3.57501 42.8903 3.76991 42.2179 3.71759C42.1682 3.70843 42.093 3.73982 42.0845 3.66069C42.0767 3.58548 42.1578 3.59332 42.2016 3.56782C42.4383 3.46776 42.681 3.38012 42.9112 3.26567C43.9962 2.72677 44.9216 2.00475 45.6606 1.02439C46.0484 0.509692 46.6384 0.208195 47.261 0.0211499C47.5285 -0.0592927 47.7619 0.0970145 47.843 0.366464C47.8672 0.445599 47.8286 0.54697 47.9614 0.577708C48.4225 0.683657 48.4676 0.989077 48.4545 1.44099C48.4499 1.59926 48.395 1.75688 48.3597 1.91384C48.3172 2.10416 48.2662 2.25392 48.5389 2.36641C48.6494 2.41219 48.9045 2.57962 48.8476 2.84776C48.8136 3.00734 48.9104 3.01649 49.0261 2.9609C49.3557 2.80198 49.6677 2.83141 50.0032 2.97921C50.2203 3.0747 50.48 3.04069 50.7121 2.95894C51.1412 2.80786 51.5807 2.81767 52.0234 2.8543C52.1882 2.86803 52.3498 2.92886 52.4518 3.0505C52.6375 3.27155 52.8396 3.3036 53.0934 3.197C53.2118 3.14729 53.3419 3.12375 53.4668 3.08909C53.7807 3.00407 54.1104 3.02369 54.4249 2.94063C54.5015 2.92035 54.5884 2.93213 54.6584 2.97529C55.0698 3.22839 55.5295 3.2297 55.9887 3.23689C56.0789 3.24016 56.1711 3.24278 56.2378 3.3193Z" fill="#A7352A"/>
<path d="M16.1663 24.093C16.8687 23.7046 17.5816 23.3704 18.4213 23.5757C18.9465 23.7046 19.352 23.4874 19.6875 23.1055C19.7463 23.0388 19.8216 23.0231 19.8863 22.9793C20.6776 22.4377 21.3957 21.8092 22.0687 21.1291C22.5416 20.651 23.0733 20.3005 23.777 20.3044C23.9091 20.305 24.0039 20.2246 24.1007 20.1566C24.7442 19.7053 25.4447 19.3456 26.1549 19.0304C26.7959 18.7459 27.4178 18.4313 28.0359 18.1063C28.0941 18.0592 28.1477 18.0696 28.1686 18.1377C28.2026 18.2475 28.1006 18.2809 28.0398 18.3365C27.6735 18.5863 27.2622 18.7511 26.873 18.9584C26.7475 19.0245 26.5872 19.0526 26.5689 19.2462C26.7213 19.1357 26.8815 19.0487 27.0365 18.9512C27.41 18.725 27.7952 18.5183 28.1647 18.2842C28.4158 18.0298 28.6303 17.7309 28.9874 17.606C29.355 17.328 29.6473 16.9742 29.9671 16.6478C30.028 16.6354 30.0541 16.6576 30.0391 16.7204C29.5734 17.3202 29.0855 17.8996 28.5165 18.4052C28.4171 18.5994 28.2183 18.6622 28.045 18.7518C27.9064 18.8231 27.7644 18.8858 27.6421 18.9839C27.737 18.9107 27.8357 18.8414 27.9515 18.8067C28.011 18.7891 28.0993 18.7635 28.0862 18.8865C27.1006 19.4411 26.0719 19.9152 25.1033 20.5019C24.9496 20.5954 24.7985 20.6955 24.6546 20.804C24.3845 21.0068 24.083 21.0898 23.7515 21.0408C23.4389 20.995 23.2708 21.2409 23.0831 21.3953C22.3944 21.9623 21.7672 22.6091 21.0504 23.1349C20.5913 23.4717 20.2192 23.9302 19.6783 24.1558C19.4671 24.0852 19.5377 23.9858 19.6509 23.8824C20.3729 23.2304 21.1335 22.6235 21.8823 22.0022C21.9928 21.9152 22.0818 21.806 22.1864 21.7125C22.0779 21.8079 21.9883 21.9224 21.8699 22.0068C21.1152 22.6366 20.3349 23.2356 19.6149 23.9073C19.4481 24.0342 19.2696 24.1244 19.0511 24.0989C18.3193 23.9243 17.5921 23.7948 16.8844 24.1983C16.7098 24.2984 16.5162 24.3631 16.3154 24.3958C16.2343 24.4089 16.1474 24.4063 16.1003 24.3245C16.0486 24.2323 16.0754 24.1512 16.1663 24.093Z" fill="#A7372A"/>
<path d="M11.9372 27.0708C11.7175 26.9636 11.4984 26.8563 11.2793 26.7484C11.4036 26.3992 11.741 26.2631 11.9902 26.0414C12.4532 25.6294 13.07 25.6922 13.6174 25.5392C14.047 25.1971 14.3956 24.7458 14.9385 24.5549C15.0614 24.5117 15.1798 24.4522 15.3158 24.462C15.427 24.4895 15.5323 24.5359 15.5611 24.6543C15.5807 24.7354 15.476 24.7171 15.4388 24.757C14.9031 24.9303 14.4663 25.2416 14.0981 25.668C13.9326 25.8596 13.6815 25.944 13.4401 26.0068C12.9208 26.1415 12.4709 26.3717 12.1629 26.8321C12.1027 26.9224 12.0131 26.9917 11.9372 27.0708Z" fill="#BE482C"/>
<path d="M15.4396 24.7577C15.6182 24.5615 15.3409 24.6034 15.3127 24.5151C14.8183 24.5268 14.473 24.8231 14.1303 25.1285C13.9792 25.2626 13.8687 25.4686 13.6169 25.4359C13.5522 25.3273 13.6679 25.309 13.7111 25.2613C13.7641 25.2031 13.8438 25.1697 13.8962 25.1109C14.4017 24.5412 15.0734 24.3117 15.7921 24.1763C15.9177 24.1527 16.042 24.1194 16.1662 24.09C16.0982 24.2881 16.127 24.3928 16.365 24.2986C16.6541 24.1835 16.9412 24.0638 17.2322 23.9539C17.5351 23.8395 17.8483 23.7675 18.1688 23.8558C18.467 23.9376 18.7979 23.8467 19.0733 24.0344C19.036 24.2149 18.8869 24.1907 18.7698 24.1789C18.5468 24.156 18.3205 24.1541 18.1021 24.0972H18.1027C17.902 24.0383 17.6999 24.0475 17.4984 24.0926C16.9242 24.3051 16.3624 24.5543 15.7627 24.6956C15.6561 24.7198 15.5475 24.7368 15.4396 24.7577Z" fill="#B1513B"/>
<path d="M47.2926 50.807C47.2658 50.6834 47.3325 50.544 47.2298 50.4335C47.1775 50.3178 47.3273 50.3675 47.3371 50.3021C47.6444 50.047 47.9368 49.7704 48.2625 49.5421C48.8707 49.115 49.5018 48.7207 50.1938 48.4375C50.2951 48.5546 50.3004 48.5618 50.1499 48.6638C49.8674 48.8554 49.5646 49.015 49.2703 49.187C48.8184 49.4506 48.3743 49.7193 48.0427 50.1019C48.0761 50.0862 48.1245 50.0215 48.1971 50.0751C48.1212 50.3982 47.8688 50.5401 47.5954 50.6592C47.4947 50.7082 47.4476 50.8678 47.2926 50.807Z" fill="#A84F3D"/>
<path d="M37.4522 7.84037C37.0638 8.33807 36.6753 8.83577 36.2855 9.33216C36.0841 9.58853 35.88 9.84228 35.6348 10.0627C36.4771 8.82792 37.1985 7.49898 38.4319 6.57422C38.3142 6.7011 38.1972 6.82732 38.0794 6.9542C37.9532 7.25308 37.6955 7.45255 37.5124 7.70826C37.4856 7.7462 37.3934 7.76189 37.4522 7.84037Z" fill="#B2563F"/>
<path d="M48.198 50.0751C48.0489 50.1195 47.9639 50.287 47.7422 50.3171C48.0398 49.9744 48.3347 49.7088 48.6683 49.491C49.1457 49.1784 49.6342 48.8835 50.1156 48.5774C50.16 48.5493 50.2836 48.5486 50.1941 48.4381C50.2751 48.3537 50.3765 48.3426 50.489 48.342C50.75 48.34 50.939 48.1863 51.1182 48.0195C51.1528 48.2864 50.9867 48.3917 50.7761 48.5002C50.0789 48.8586 49.3903 49.234 48.7016 49.6101C48.4976 49.7213 48.3419 49.8939 48.198 50.0751Z" fill="#DABDB0"/>
<path d="M56.2378 3.31876C55.7244 3.36781 55.2241 3.26056 54.7205 3.19319C54.6819 3.18796 54.6048 3.21739 54.6152 3.14022C54.6198 3.10948 54.6872 3.08724 54.7702 3.03165C54.3046 3.01661 53.888 3.15853 53.4668 3.08986C53.7984 2.91197 54.1895 2.94075 54.5282 2.78706C54.5518 2.77659 54.6041 2.78052 54.6146 2.79687C54.835 3.12845 55.2091 3.02054 55.5125 3.10294C55.744 3.16572 55.9612 3.1775 56.2143 3.01203C56.4111 2.88254 56.7519 2.91066 56.9801 3.13368C56.7283 3.18011 56.4118 2.96364 56.2378 3.31876Z" fill="#D7AE9D"/>
<path d="M30.8772 15.6188C31.2643 15.0066 31.6469 14.3905 32.1381 13.8536C32.2094 13.7758 32.314 13.728 32.4337 13.6914C32.0112 14.4167 31.4939 15.0727 30.9844 15.7339C30.953 15.7613 30.9177 15.7698 30.8844 15.7417C30.8406 15.7044 30.8432 15.6619 30.8772 15.6188Z" fill="#AF4834"/>
<path d="M42.1999 3.57062C42.2522 3.61182 42.0063 3.65368 42.1999 3.69488C42.2208 3.70861 42.2273 3.723 42.2202 3.73674C42.213 3.75047 42.2064 3.75766 42.1992 3.75766C41.8219 3.78252 41.5125 3.95125 41.2339 4.19846C40.8598 4.53004 40.487 4.86424 40.043 5.12061C40.1783 4.84135 40.419 4.64449 40.6218 4.42082C40.9782 4.02908 41.4314 3.77663 41.9128 3.57193C42.005 3.53334 42.1044 3.50456 42.1999 3.57062Z" fill="#B8634B"/>
<path d="M54.3736 46.4388C54.0813 46.6127 53.77 46.7507 53.4423 46.8318C53.1146 46.9129 52.872 47.1582 52.5555 47.251C52.4515 47.2818 52.3455 47.3073 52.2402 47.3347C52.5267 47.0836 52.8059 46.839 53.1918 46.7193C53.5574 46.6068 53.8955 46.4061 54.2454 46.2445C54.4573 46.1968 54.4011 46.3269 54.3736 46.4388Z" fill="#AF614D"/>
<path d="M42.1996 3.75626C42.1996 3.73533 42.1996 3.7144 42.1996 3.69413C42.8464 3.60911 43.5017 3.54959 44.0262 3.09375C44.1485 3.17681 44.0713 3.24613 44.0086 3.31219C43.9288 3.3959 43.8228 3.42729 43.7116 3.44299C43.3585 3.6333 43.0079 3.8125 42.6025 3.88967C42.2938 3.94853 41.9681 3.97993 41.6875 4.16436C41.7621 3.90799 41.9949 3.8864 42.1806 3.79877C42.1891 3.79484 42.2015 3.79942 42.21 3.7955C42.2735 3.7641 42.2009 3.76934 42.1996 3.75626Z" fill="#BA674E"/>
<path d="M46.5548 50.9742C46.1728 51.3934 45.7281 51.7518 45.373 52.1978C45.3135 52.2724 45.2474 52.2717 45.2533 52.1494C45.2598 52.0173 45.1382 52.1193 45.1035 52.0651C45.3547 51.9231 45.6104 51.7727 45.7536 51.519C45.8752 51.3031 46.0538 51.1625 46.2225 50.9971C46.3579 50.8643 46.4403 50.9173 46.5548 50.9742Z" fill="#BE482C"/>
<path d="M9.06546 42.6289C9.27801 42.7231 9.24074 42.8781 9.1361 43.0154C8.9085 43.315 8.5488 43.4503 8.26431 43.6812C8.17602 43.7531 8.07726 43.6459 7.98047 43.6413C8.17275 43.4059 8.45266 43.2862 8.68876 43.1096C8.86076 42.9808 8.99941 42.8369 9.06546 42.6289Z" fill="#BA6850"/>
<path d="M43.7109 3.44487C43.7822 3.29837 44.0621 3.33957 44.0255 3.09563C44.416 2.96025 44.6959 2.57896 45.1517 2.59008C45.1144 2.73985 44.9614 2.75816 44.8633 2.8373C44.5919 3.05508 44.308 3.25717 44.0321 3.46906C43.9143 3.55932 43.8084 3.5894 43.7109 3.44487Z" fill="#CC927C"/>
<path d="M18.0996 24.0975C18.422 24.0563 18.7556 24.1858 19.0715 24.0347C19.2716 24.0386 19.4279 23.9203 19.5992 23.8438C19.6489 23.8523 19.6777 23.881 19.6862 23.9307C19.6339 24.0033 19.5391 24.074 19.6777 24.1537C19.1408 24.4212 18.6189 24.2845 18.0996 24.0975Z" fill="#C6846E"/>
<path d="M59.1425 3.68054C59.2367 3.71062 59.3309 3.74071 59.446 3.77798C59.0294 3.90813 58.6252 3.91271 58.2112 3.82376C58.0922 3.79826 58.0464 3.72697 58.002 3.63672C58.3806 3.69623 58.7626 3.66092 59.1425 3.68054Z" fill="#C4836D"/>
<path d="M28.9873 17.6037C28.7294 17.8505 28.4715 18.0973 28.2135 18.3441C28.1383 18.3068 28.0368 18.3788 27.9746 18.2865C28.1435 18.1588 28.1435 18.1588 28.0348 18.1045C28.2797 17.9206 28.5337 17.7477 28.7654 17.5487C28.8937 17.4374 28.9081 17.6135 28.9873 17.6037Z" fill="#C88C76"/>
<path d="M7.07627 34.5703C7.07561 34.6286 7.07561 34.6875 7.07496 34.7458C6.78234 34.9533 6.5277 35.2027 6.28156 35.4619C6.16962 35.3212 6.20628 35.2223 6.33393 35.0966C6.55519 34.878 6.78496 34.6836 7.07627 34.5703Z" fill="#C3826D"/>
<path d="M7.56218 47.6419C7.48828 47.226 7.70018 46.8721 7.81005 46.4961C8.02456 46.9428 7.80809 47.2959 7.56218 47.6419Z" fill="#CE9884"/>
<path d="M13.6152 25.4362C13.816 25.3374 13.9867 25.206 14.1417 25.0405C14.4013 24.7632 14.7362 24.599 15.0959 24.4859C15.1705 24.4624 15.2509 24.4231 15.3117 24.5147C14.8108 24.6226 14.4157 24.9038 14.0672 25.2655C13.9429 25.395 13.8226 25.5395 13.6172 25.5388C13.6165 25.5048 13.6159 25.4708 13.6152 25.4362Z" fill="#D29F8B"/>
<path d="M37.4512 7.84013C37.4244 7.85257 37.3956 7.87875 37.3707 7.87548C37.2529 7.86173 37.3478 7.80936 37.3635 7.78907C37.5867 7.49777 37.7949 7.19271 38.079 6.95312C38.0836 7.01204 38.2125 7.03102 38.1543 7.09059C37.9147 7.33542 37.7661 7.666 37.4512 7.84013Z" fill="#D8AE9C"/>
<path d="M28.0863 18.8855C27.8912 18.7801 27.7819 19.0668 27.5469 18.9751C27.8585 18.729 28.1995 18.5843 28.517 18.4023C28.5707 18.4698 28.6866 18.513 28.5373 18.621C28.3939 18.7257 28.2362 18.7977 28.0863 18.8855Z" fill="#DFBDAF"/>
<path d="M56.1336 45.7756C55.8174 45.9196 55.5228 46.1251 55.1562 46.1304C55.2152 45.8869 55.3847 45.7834 55.6204 45.788C55.6773 45.7893 55.748 45.8332 55.7834 45.7769C55.9051 45.5805 56.0177 45.7514 56.1336 45.7756Z" fill="#C99A87"/>
<path d="M58.7226 45.1581C58.6075 45.2869 58.3394 45.3759 58.3014 45.3647C57.9398 45.2594 57.7946 45.7532 57.4525 45.6362C57.41 45.5315 57.6402 45.5897 57.569 45.4609C57.8875 45.3098 58.2544 45.2856 58.5545 45.0874C58.6507 45.024 58.6343 45.2124 58.7226 45.1581Z" fill="#B46D59"/>
<path d="M30.8791 15.6172C30.8889 15.68 30.9099 15.7316 30.9864 15.7323C30.6705 16.0599 30.3546 16.3876 30.0387 16.7146C30.0145 16.6904 29.991 16.6662 29.9668 16.642C30.2709 16.3006 30.575 15.9586 30.8791 15.6172Z" fill="#BD7058"/>
<path d="M7.81055 46.4948C7.86548 46.0148 7.92042 45.5347 7.97536 45.0547C8.06692 45.0998 8.06038 45.194 8.05122 45.2646C7.99563 45.6793 8.07411 46.1214 7.81055 46.4948Z" fill="#CE9884"/>
<path d="M34.7816 11.2539C34.5807 11.5897 34.3162 11.8627 33.998 12.082C34.1617 11.7082 34.5132 11.5223 34.7816 11.2539Z" fill="#D3A491"/>
<path d="M54.3731 46.4402C54.3188 46.3832 54.3993 46.2366 54.2441 46.2464C54.542 46.1521 54.8359 46.0297 55.1586 46.1331C54.8961 46.2346 54.6349 46.3374 54.3731 46.4402Z" fill="#C99A87"/>
<path d="M10.1044 54.1206C10.1187 54.4358 10.0749 54.7609 10.2849 55.0434C9.95328 54.8197 9.87545 54.4143 10.0481 53.9414C10.0736 53.999 10.0409 54.0755 10.1044 54.1206Z" fill="#D5AA98"/>
<path d="M43.1582 55.5087C43.3127 55.2462 43.5287 55.0066 43.7611 54.8711C43.6374 55.1938 43.4096 55.3725 43.2453 55.5938C43.2165 55.5656 43.187 55.5368 43.1582 55.5087Z" fill="#D0A898"/>
<path d="M47.3359 50.3047C47.2999 50.3485 47.2646 50.3924 47.2286 50.4363C47.0257 50.5973 46.8227 50.7583 46.6191 50.9194C46.716 50.5495 47.0322 50.4343 47.3359 50.3047Z" fill="#BE482C"/>
<path d="M42.7821 43.7121C42.7598 43.8266 42.6701 43.8404 42.5765 43.8384C42.4999 43.8371 42.3913 43.8554 42.3926 43.7396C42.3932 43.6211 42.5104 43.6159 42.5955 43.6015C42.678 43.5884 42.7579 43.6054 42.7821 43.7121Z" fill="#ACABA9"/>
<path d="M43.47 55.7031C43.5453 55.9493 43.4085 56.1653 43.1191 56.2563C43.2213 56.0625 43.3201 55.8668 43.47 55.7031Z" fill="#B97B67"/>
<path d="M7.80469 50.7413C7.82891 50.7171 7.85378 50.6928 7.878 50.668C8.06522 50.8002 8.22757 50.954 8.30481 51.1949C8.13854 51.0444 7.97161 50.8932 7.80469 50.7413Z" fill="#C9907B"/>
<path d="M7.62115 50.7388C7.46207 50.64 7.37305 50.4959 7.37305 50.2852C7.4935 50.4194 7.61395 50.5529 7.73439 50.6871C7.68988 50.6891 7.63948 50.6792 7.62115 50.7388Z" fill="#C88D77"/>
<path d="M56.8533 45.6456C56.7329 45.7844 56.6098 45.662 56.488 45.6495C56.4717 45.6155 56.4442 45.5814 56.4416 45.5461C56.4376 45.4963 56.5123 45.4774 56.5175 45.4944C56.5725 45.6796 56.8527 45.3563 56.8533 45.6456Z" fill="#BA7964"/>
<path d="M41.7676 56.297C41.8992 56.1255 41.979 55.9101 42.1826 55.7969C42.0785 55.9965 42.0019 56.2093 41.8383 56.3684C41.8147 56.3441 41.7911 56.3206 41.7676 56.297Z" fill="#CBA292"/>
<path d="M43.4102 55.5699C43.4737 55.4206 43.6275 55.3859 43.7538 55.2891C43.7741 55.5195 43.6301 55.6131 43.473 55.6969C43.4625 55.6491 43.4926 55.5817 43.4102 55.5699Z" fill="#B97B67"/>
<path d="M10.2232 54.5566C10.091 54.4171 10.2573 54.2109 10.1152 54.0741C10.1676 53.917 10.2311 53.9275 10.2455 54.0807C10.2606 54.2371 10.2324 54.3975 10.2232 54.5566Z" fill="#D5AA98"/>
<path d="M13.7985 58.671C13.7402 58.5662 13.4947 58.4602 13.8017 58.3594C13.8004 58.4635 13.8881 58.5682 13.7985 58.671Z" fill="#CF9D89"/>
<path d="M17.498 24.0914C17.7003 23.9965 17.9019 24.0037 18.1029 24.096C17.9013 24.0947 17.6997 24.0927 17.498 24.0914Z" fill="#C6846E"/>
<path d="M54.6045 60.9025C54.6235 60.7337 54.6693 60.5892 54.8812 60.5898C54.9904 60.5905 55.0283 60.4917 55.0859 60.429C55.3658 60.1203 55.7922 59.9594 55.9694 59.5434C55.9989 59.4748 56.0996 59.5238 56.1663 59.5389C56.4436 59.6016 56.6954 59.722 56.9491 59.8907C56.8471 60.0032 56.7144 60.0339 56.5927 60.0765C55.6398 60.4087 54.9309 61.0457 54.3612 61.8573C54.1807 62.1143 54.0382 62.3864 53.9976 62.7062C53.9891 62.7729 54.0323 62.9273 53.8786 62.8919C53.7681 62.8664 53.6327 62.8194 53.6431 62.6611C53.6804 62.0895 53.842 61.5454 54.1605 61.0764C54.2756 60.907 54.2854 60.6539 54.5123 60.5578C54.5463 60.6193 54.3959 60.6605 54.4979 60.7246C54.617 61.0503 54.3639 61.323 54.356 61.6552C54.4096 61.3766 54.4495 61.1209 54.6045 60.9025Z" fill="#EEE5E1"/>
<path d="M57.6924 62.4293C57.8219 62.6419 58.0031 62.4529 58.0528 62.4064C58.1771 62.2907 58.2529 62.118 58.2065 61.9172C58.0652 61.307 57.6643 61.1874 57.2111 61.2855C57.1241 61.3044 57.0365 61.3155 56.9031 61.3384C57.1287 61.0611 57.3936 61.0409 57.6611 61.0932C57.9835 61.156 58.2569 61.307 58.3183 61.6707C58.3922 62.1049 58.3778 62.4986 57.9482 62.7877C57.5662 63.0447 57.2006 63.29 56.7095 63.2279C56.512 63.203 56.2824 63.1925 56.2687 62.9564C56.2569 62.7557 56.338 62.5398 56.5872 62.4718C56.6349 62.4587 56.6794 62.4332 56.7258 62.4143C56.7428 62.4051 56.7723 62.3947 56.7723 62.3822C56.7814 62.1252 56.9528 62.086 57.1588 62.0899C57.4969 62.0408 57.5845 62.0964 57.6924 62.4293Z" fill="#F0E7E2"/>
<path d="M52.7363 58.732C52.856 58.4907 52.856 58.4907 52.7926 58.4259C53.4917 57.7575 54.2137 57.1238 55.1182 56.734C55.3831 56.6196 55.6329 56.4672 55.8808 56.3161C56.4112 55.9937 56.9592 55.8348 57.5871 56.1094C57.1437 56.1513 56.7179 56.2553 56.3334 56.4234C55.4204 56.823 54.4583 57.1388 53.7186 57.8681C53.4093 58.1735 53.1098 58.4979 52.7363 58.732Z" fill="#ECE1DC"/>
<path d="M58.5052 59.8227C58.0709 59.7435 57.6465 59.7331 57.224 59.8567C57.1455 59.8796 57.0663 59.89 57.0114 59.8011C56.8728 59.5774 56.6497 59.4591 56.4241 59.3472C56.3594 59.3152 56.2874 59.2955 56.2979 59.2053C56.3077 59.1222 56.3829 59.1379 56.4372 59.1242C56.9284 58.9999 57.4032 59.0045 57.8459 59.2942C58.0801 59.4473 58.3109 59.6016 58.5052 59.8227Z" fill="#EFE6E2"/>
<path d="M47.7701 60.5417C47.7629 60.4357 47.7498 60.3285 47.8315 60.2402C47.908 60.1094 47.8047 59.9034 48.0048 59.8242C47.9381 60.6031 47.929 61.3834 47.9394 62.1649C47.944 62.4742 47.9401 62.7836 47.9401 63.0916C47.7138 62.7332 47.6275 62.3107 47.5817 61.8752C47.5451 61.5318 47.5333 61.1885 47.5895 60.8458L47.5889 60.8477C47.8341 60.9171 47.5758 61.1087 47.6772 61.1767C47.772 60.9975 47.5974 60.7457 47.7701 60.5417Z" fill="#EADDD7"/>
<path d="M56.127 50.8547C55.9883 50.72 55.9471 50.6134 56.193 50.5552C56.2767 50.5356 56.346 50.4525 56.4298 50.4375C56.575 50.4107 56.7332 50.1595 56.883 50.4708C56.9131 50.5323 57.1636 50.4891 57.3127 50.4918C57.4422 50.4937 57.5723 50.4924 57.7018 50.4931C57.7443 50.6082 57.5795 50.5872 57.5821 50.6762C57.5272 50.858 56.9896 51.1844 56.8215 51.0738C56.554 50.8972 56.316 51.1052 56.0727 51.0411C56.0805 50.7952 56.3474 51.0876 56.3506 50.9064C56.2865 50.9398 56.1924 50.9934 56.127 50.8547Z" fill="#AD5845"/>
<path d="M50.0229 49.3376C50.1772 49.1277 50.3931 49.0564 50.6422 49.0675C50.7384 49.0714 50.8613 49.0669 50.8973 49.1728C50.9339 49.2801 50.8175 49.3239 50.7456 49.369C50.2963 49.6509 49.845 49.9301 49.3905 50.2035C49.2845 50.267 49.1969 50.4416 49.0321 50.2997C48.9863 50.1061 49.2891 50.1093 49.2466 49.9177C49.2224 49.8719 49.1988 49.8262 49.2276 49.7738C49.2826 49.7496 49.3368 49.7254 49.3918 49.7019C49.6501 49.6633 49.7979 49.4338 50.0229 49.3376Z" fill="#BB7E6A"/>
<path d="M52.7969 50.7844C53.3142 50.3332 53.9106 50.0552 54.5666 49.9009C54.617 49.8891 54.6968 49.8623 54.7216 49.9401C54.7432 50.0075 54.6811 50.0474 54.6327 50.082C54.3809 50.2651 54.1337 50.4561 53.8734 50.6275C53.5424 50.8459 53.152 50.6876 52.7969 50.7844Z" fill="#E2CEC5"/>
<path d="M57.5236 54.6773C57.6505 54.6544 57.765 54.71 57.8846 54.7329C57.9187 54.7741 57.9187 54.8153 57.8827 54.8552C57.158 54.9951 56.4576 55.2227 55.7532 55.4346C55.5152 55.5066 55.2758 55.5759 55.0371 55.6465C55.0705 55.3509 55.3098 55.3012 55.5322 55.2312C55.6872 55.1822 55.8428 55.1331 55.9978 55.0841C56.472 54.8218 56.9867 54.708 57.5236 54.6773Z" fill="#EADFD9"/>
<path d="M48.2242 61.3044C47.9901 60.0199 48.6911 57.674 49.2065 57.207C49.1987 57.398 49.111 57.5399 49.0345 57.6773C48.8069 58.086 48.6637 58.5222 48.5767 58.9794C48.5388 59.1795 48.6035 59.3764 48.5767 59.5863C48.5394 59.878 48.2477 60.0618 48.3177 60.3973C48.3766 60.6759 48.3628 60.9774 48.2242 61.3044Z" fill="#D8BBAE"/>
<path d="M54.8169 63.0814C54.7764 63.2168 54.8287 63.343 54.8391 63.4882C54.4193 63.0945 54.4101 62.6079 54.7999 62.2148C54.949 62.7138 54.9667 63.2429 55.1962 63.7236C54.9588 63.6236 54.9058 63.534 54.8169 63.0814Z" fill="#B7725E"/>
<path d="M46.4297 53.9253C46.7194 53.6741 47.0091 53.423 47.2988 53.1719C46.8123 53.9953 46.068 54.5884 45.4258 55.283C45.4997 55.1372 45.5736 54.9913 45.6475 54.8455C45.8816 54.5165 46.2302 54.2837 46.4297 53.9253Z" fill="#B97763"/>
<path d="M58.7824 62.8976C58.8086 62.8112 58.8197 62.717 58.8628 62.6405C59.1408 62.1487 59.1205 61.6739 58.7994 61.2102C59.0113 61.1252 59.0813 61.2972 59.167 61.4228C59.3422 61.6785 59.3206 61.9944 59.3769 62.2789C59.4246 62.5189 59.2716 62.7609 59.0394 62.9074L59.0368 62.908C58.9923 62.959 58.9564 63.0192 58.8969 63.0552C58.84 63.0898 58.7719 63.1402 58.719 63.063C58.6699 62.9924 58.7203 62.9374 58.7824 62.8976Z" fill="#E0CCC2"/>
<path d="M53.6195 54.8438C53.335 55.0968 53.0387 55.2087 52.8792 55.4775C53.1368 55.5527 53.2134 55.2473 53.4789 55.2126C53.0826 55.6855 52.5646 55.9065 52.1055 56.2466C52.2284 55.8176 53.1107 54.9765 53.6195 54.8438Z" fill="#C79684"/>
<path d="M49.2733 49.8633C49.3622 49.9064 49.4656 49.9411 49.3217 50.0497C49.221 50.1255 49.1294 50.2125 49.0339 50.2943C48.6958 50.5068 48.3851 50.7547 48.0882 51.0209C47.8567 51.2282 47.5801 51.3623 47.2969 51.4904C47.5042 51.1988 47.8135 51.0215 48.0732 50.79C48.4316 50.4277 48.8443 50.1347 49.2733 49.8633Z" fill="#E4D3CA"/>
<path d="M59.0387 62.9061C59.1479 62.7171 59.2957 62.5451 59.3042 62.311C59.3068 62.2469 59.333 62.192 59.2937 62.1181C59.1322 61.8127 59.2565 61.3535 58.798 61.209C58.7293 61.1619 58.7895 61.1168 58.8006 61.071C58.8634 61.0396 58.9216 61.09 58.9831 61.0828C59.2414 60.9108 59.1924 61.1855 59.2682 61.2783C59.2565 61.5386 59.3997 61.7584 59.4344 61.9703C59.416 61.9376 59.4049 61.8748 59.4566 61.812C59.6306 62.2567 59.4415 62.7512 59.0387 62.9061Z" fill="#AE5D4A"/>
<path d="M44.3175 53.7587C44.8074 53.2591 45.2972 52.7594 45.7871 52.2604C45.8708 52.059 45.9663 51.866 46.1513 51.7346C46.2292 51.732 46.2952 51.7535 46.3358 51.8261C45.738 52.5711 45.0382 53.2205 44.3823 53.9111C44.3195 53.8771 44.2933 53.8287 44.3175 53.7587Z" fill="#E4D3CB"/>
<path d="M43.781 62.5386C43.5861 62.5255 43.6895 62.277 43.5377 62.2299C43.4867 61.487 43.6306 60.7689 43.8196 60.0547C43.7529 60.882 43.6626 61.7093 43.781 62.5386Z" fill="#E8DAD4"/>
<path d="M50.3398 59.5742C50.7911 58.6049 51.3372 57.7031 52.1619 56.9961C51.5144 57.8273 50.8382 58.6383 50.3398 59.5742Z" fill="#DDC5BA"/>
<path d="M45.6982 58.8047C45.4287 59.6693 45.037 60.494 44.9297 61.4011C44.9258 60.4613 45.1822 59.5947 45.6982 58.8047Z" fill="#E4D2C9"/>
<path d="M54.976 55.6998C54.5666 55.7979 54.222 56.0627 53.8008 56.1419C54.3227 55.8227 54.7314 55.3342 55.339 55.1484C55.375 55.308 55.254 55.3571 55.1487 55.4107C55.027 55.4722 54.9767 55.5696 54.976 55.6998Z" fill="#E1D0C8"/>
<path d="M48.2987 54.7109C47.9688 55.0121 47.9197 55.5868 47.3672 55.6706C47.6461 55.3197 47.7907 54.8379 48.2987 54.7109Z" fill="#DCC1B5"/>
<path d="M46.3346 51.825C46.2699 51.8053 46.2051 51.7857 46.1404 51.7661C46.1181 51.5549 46.3209 51.5464 46.4255 51.4496C46.7139 51.2344 47.0023 51.0199 47.2908 50.8047C47.3915 50.755 47.4928 50.706 47.5936 50.6562C47.3725 51.0127 46.9677 51.169 46.7002 51.4764C46.5897 51.6026 46.4569 51.7092 46.3346 51.825Z" fill="#CFA999"/>
<path d="M58.7805 62.8996C58.7675 62.9467 58.7544 62.9938 58.7354 63.0639C58.8683 63.0599 58.9357 62.9493 59.0359 62.9107C58.9887 63.1391 58.7779 63.1981 58.6254 63.3211C58.5331 63.2458 58.6909 63.2059 58.6175 63.1267C58.4604 63.2236 58.3446 63.4913 58.0742 63.3172C58.2156 63.0521 58.5305 62.9545 58.6948 62.6953C58.7288 62.7758 58.755 62.838 58.7805 62.8996Z" fill="#B0624E"/>
<path d="M59.2789 55.2778C59.2769 55.2954 59.2736 55.3131 59.2697 55.3301C58.7001 55.3451 58.1546 55.5348 57.587 55.5642C57.5732 55.402 57.7014 55.4216 57.8002 55.3863C57.9329 55.3392 58.0722 55.3517 58.2024 55.319C58.2828 55.2987 58.152 55.2974 58.1775 55.2621C58.5457 55.213 58.9146 55.0691 59.2789 55.2778Z" fill="#B36752"/>
<path d="M55.2834 61.2727C55.0878 61.4747 54.8844 61.669 54.6993 61.8796C54.4044 62.2144 54.2474 62.6088 54.2677 63.081C54.1101 62.9364 54.1055 62.9188 54.1415 62.7245C54.2337 62.2242 54.5397 61.8567 54.889 61.5159C54.9969 61.4106 55.1061 61.3073 55.2147 61.2027C55.2742 61.1896 55.2964 61.2138 55.2834 61.2727Z" fill="#D2AEA0"/>
<path d="M56.1251 50.8551C56.2565 50.9976 56.4168 50.7256 56.5404 50.8917C56.3991 50.9702 56.2068 50.9205 56.0701 51.0408C55.6326 51.0905 55.2154 51.2265 54.7929 51.3397C54.7294 51.3829 54.6817 51.39 54.6837 51.29C54.8812 51.2043 55.0793 51.1186 55.2768 51.0323C55.4076 50.9355 55.5594 50.9264 55.7131 50.9277C55.8511 50.9035 55.9884 50.8793 56.1251 50.8551Z" fill="#D3B0A2"/>
<path d="M42.5598 62.2399C42.5408 62.2393 42.5219 62.2386 42.5029 62.238C42.342 61.9038 42.5029 61.5663 42.5094 61.2334C42.5179 60.8234 42.533 60.3996 42.7148 60.0078C42.7109 60.7553 42.5206 61.4904 42.5598 62.2399Z" fill="#C08C7A"/>
<path d="M49.3489 51.7969C49.0965 52.0081 49.016 52.292 48.6655 52.3874C48.4601 52.443 48.3097 52.7661 48.0684 52.9008C48.1861 52.5621 48.9258 51.9061 49.3489 51.7969Z" fill="#C69D8D"/>
<path d="M51.4667 61.8761C51.4007 61.4896 51.4111 61.1109 51.523 60.729C51.5583 60.6093 51.6015 60.5335 51.7002 60.4766C51.7656 60.6289 51.7774 60.7807 51.7087 60.937C51.5773 61.2365 51.5688 61.5688 51.4667 61.8761Z" fill="#BC7E6B"/>
<path d="M45.8497 56.3359C45.8425 55.8238 46.2133 55.5269 46.5273 55.1953C46.2872 55.5668 46.1911 56.0174 45.8497 56.3359Z" fill="#CA9C8B"/>
<path d="M49.2709 49.865C48.919 50.2365 48.4939 50.5131 48.0701 50.7917C48.0316 50.7191 48.0446 50.6701 48.1153 50.6171C48.4881 50.3379 48.8563 50.0527 49.2264 49.7695C49.2415 49.8022 49.2565 49.8336 49.2709 49.865Z" fill="#B16B57"/>
<path d="M57.6927 62.4301C57.5486 62.271 57.4564 62.0053 57.1552 62.1715C57.0878 61.8999 57.1317 61.8475 57.5041 61.7578C57.7346 61.8095 57.8085 61.9437 57.7346 62.1702C57.7077 62.2527 57.7064 62.3437 57.6927 62.4301Z" fill="#AD5D4A"/>
<path d="M41.3223 58.6979C41.4858 58.1407 41.8572 57.7588 42.2653 57.4062C42.285 57.4213 42.3046 57.4363 42.3242 57.452C41.9907 57.8667 41.6565 58.282 41.3223 58.6979Z" fill="#C99E8D"/>
<path d="M43.3168 54.3828C43.1035 54.9413 42.5522 55.2016 42.2344 55.6653C42.445 55.1094 42.9616 54.8118 43.3168 54.3828Z" fill="#CBA292"/>
<path d="M50.8418 57.2981C50.9504 56.7108 51.4363 56.4158 51.8091 56.0312C51.5292 56.4858 51.1204 56.8403 50.8418 57.2981Z" fill="#C08875"/>
<path d="M57.5228 54.6731C57.0139 54.8085 56.5051 54.9439 55.9963 55.0799C55.961 54.8785 56.1618 54.9275 56.2416 54.8484C56.564 54.7961 56.8491 54.609 57.1794 54.5855C57.2291 54.5822 57.2782 54.5757 57.3246 54.5985C57.3697 54.679 57.4547 54.6541 57.5228 54.6731Z" fill="#B5735F"/>
<path d="M46.4278 51.4531C46.359 51.5827 46.1941 51.6253 46.1423 51.77C45.9826 51.9048 46.0042 52.1699 45.7875 52.2642C45.7332 52.1608 45.6311 52.2131 45.4688 52.2151C45.8196 51.9166 46.0121 51.5526 46.4278 51.4531Z" fill="#B46D58"/>
<path d="M44.0566 53.4894C44.3401 53.0894 44.6838 52.7483 45.0798 52.457C44.7702 52.8321 44.4972 53.2419 44.0566 53.4894Z" fill="#BE482C"/>
<path d="M54.8893 59.2734C54.6838 59.6426 54.2563 59.7271 53.9978 60.0249C53.9585 60.0701 53.9028 60.0544 53.8681 60.0092C53.8328 59.9634 53.8799 59.949 53.9061 59.9208C54.185 59.6282 54.5195 59.4233 54.8893 59.2734Z" fill="#E0CBC1"/>
<path d="M57.5814 50.6763C57.533 50.6547 57.448 50.6906 57.4382 50.6174C57.4297 50.5507 57.5029 50.5651 57.5467 50.5612C57.6063 50.5553 57.6605 50.5415 57.7011 50.4938C57.996 50.4421 58.2871 50.4617 58.5932 50.5356C58.3387 50.6952 58.2982 50.7024 58.0549 50.6429C57.8934 50.6024 57.7397 50.6717 57.5814 50.6763Z" fill="#C5917E"/>
<path d="M46.2614 57.4336C46.0168 57.8319 45.9527 58.3211 45.6211 58.6723C45.7957 58.2393 45.8487 57.7462 46.2614 57.4336Z" fill="#BE482C"/>
<path d="M46.4314 53.9297C46.358 54.1581 46.3057 54.3951 46.0222 54.4743C45.9253 54.5012 45.9005 54.6262 45.8435 54.7074C45.797 54.7741 45.7938 54.9142 45.6484 54.8507C45.8226 54.4697 46.0674 54.149 46.4314 53.9297Z" fill="#CEAB9A"/>
<path d="M58.1801 55.2656C58.2383 55.2735 58.2965 55.2813 58.3724 55.2918C58.131 55.4736 57.7975 55.3448 57.5902 55.5678C57.5104 55.6057 57.5568 55.6502 57.5836 55.6933C57.4829 55.6901 57.3253 55.7516 57.3057 55.6253C57.2828 55.4788 57.3959 55.3873 57.566 55.3716C57.772 55.3526 57.9754 55.3022 58.1801 55.2656Z" fill="#CA9C8B"/>
<path d="M57.5081 61.7594C57.3843 61.891 57.0885 61.8772 57.1592 62.1731C56.9556 62.1476 56.8554 62.3054 56.7291 62.4166C56.6819 62.033 57.0191 61.9499 57.2344 61.7732C57.3176 61.7051 57.4131 61.6822 57.5081 61.7594Z" fill="#D6BAAD"/>
<path d="M55.3153 51.5028C54.8803 51.6663 54.5174 51.7769 54.1309 51.8043C54.4559 51.5519 54.8313 51.4845 55.3153 51.5028Z" fill="#CFAA9A"/>
<path d="M44.7566 62.6818C44.7351 62.2842 44.6899 61.8839 44.856 61.4961C44.9345 61.895 44.8096 62.2874 44.7566 62.6818Z" fill="#DBC2B7"/>
<path d="M47.7707 60.5465C47.8119 60.8807 47.668 61.2024 47.7315 61.5392C47.5869 61.3215 47.7406 61.0618 47.5902 60.8519C47.5738 60.6831 47.5562 60.5138 47.668 60.3516C47.7046 60.4209 47.738 60.4837 47.7707 60.5465Z" fill="#BE482C"/>
<path d="M54.6829 51.2891C54.7196 51.3054 54.7555 51.3224 54.7922 51.3388C54.4311 51.4676 54.0701 51.5958 53.7091 51.7246C53.6987 51.6952 53.6882 51.6651 53.6777 51.6357C54.008 51.5075 54.3082 51.3028 54.6829 51.2891Z" fill="#B97D69"/>
<path d="M58.9837 61.0879C58.9136 61.2346 58.8625 61.0709 58.801 61.0761C58.6184 60.9426 58.437 60.8071 58.2812 60.6055C58.6361 60.6205 58.8036 60.8627 58.9837 61.0879Z" fill="#DDC4B8"/>
<path d="M57.3272 54.6033C57.0289 54.6876 56.7314 54.7746 56.4318 54.8557C56.3723 54.872 56.305 54.9388 56.2441 54.8531C56.5855 54.6863 56.9138 54.462 57.3272 54.6033Z" fill="#D8BCB0"/>
<path d="M54.9777 55.6994C54.9083 55.5718 54.9044 55.4677 55.0569 55.3878C55.1669 55.3302 55.2828 55.2706 55.341 55.1476C55.485 54.978 55.5243 55.0625 55.5315 55.2255C55.4098 55.4153 55.1237 55.4101 55.036 55.6412C55.017 55.6608 54.9973 55.6798 54.9777 55.6994Z" fill="#B87561"/>
<path d="M44.1912 59.293C44.1918 59.6039 44.161 59.9103 44 60.1878C44.0059 59.8782 44.0275 59.5718 44.1912 59.293Z" fill="#B87661"/>
<path d="M44.3173 53.7617C44.3389 53.8121 44.3605 53.8625 44.3821 53.9129C44.2342 54.1296 44.005 54.2448 43.7969 54.3888C43.9154 54.1303 44.1032 53.9345 44.3173 53.7617Z" fill="#C99987"/>
<path d="M51.2221 55.2695C51.1285 55.5936 50.7763 55.6688 50.6055 55.9183C50.6952 55.5896 50.9662 55.4371 51.2247 55.2728L51.2221 55.2695Z" fill="#B56E59"/>
<path d="M55.2823 61.2728C55.2594 61.2492 55.2365 61.2263 55.2129 61.2027C55.4289 60.9913 55.6181 60.7353 55.9736 60.7464C55.7084 60.8787 55.5042 61.0875 55.2823 61.2728Z" fill="#BA7762"/>
<path d="M51.8926 51.3511C52.2107 51.2136 52.5478 51.1436 52.8869 51.0781C52.6526 51.3282 52.3043 51.2797 52.0255 51.41C51.9652 51.4257 51.8939 51.4676 51.8926 51.3511Z" fill="#C49382"/>
<path d="M57.8828 54.8538C57.8835 54.8133 57.8841 54.772 57.8848 54.7314C58.1296 54.6882 58.3777 54.7727 58.6271 54.7314C58.4026 54.901 58.1466 54.8964 57.8828 54.8538Z" fill="#BB7B66"/>
<path d="M50.4824 52.4558C50.7214 52.2607 50.9845 52.1212 51.2968 52.0938C51.0591 52.2921 50.7672 52.3654 50.4824 52.4558Z" fill="#B97A66"/>
<path d="M54.605 60.8975C54.5232 61.1685 54.4407 61.4395 54.3589 61.7105C54.3052 61.3609 54.5022 61.0565 54.4964 60.7188C54.5991 60.7384 54.5356 60.8582 54.605 60.8975Z" fill="#B5725E"/>
<path d="M56.0539 63.4251C55.7619 63.3427 55.5806 63.2451 55.6493 62.9453C55.6971 63.1535 55.9498 63.179 56.0539 63.4251Z" fill="#C99A89"/>
<path d="M53.6532 60.7812C53.5864 60.9875 53.5746 61.1472 53.4869 61.2833C53.4561 61.3311 53.4359 61.4071 53.3606 61.3678C53.3134 61.3429 53.3187 61.2761 53.3396 61.2316C53.4097 61.0811 53.4548 60.9128 53.6532 60.7812Z" fill="#C99886"/>
<path d="M54.4043 56.6067C54.568 56.4012 54.8023 56.3233 55.0445 56.2578C54.8579 56.4208 54.6531 56.5504 54.4043 56.6067Z" fill="#C08773"/>
<path d="M51.8929 51.3477C51.9374 51.3673 51.9813 51.3869 52.0258 51.4066C51.815 51.5054 51.6042 51.6043 51.3934 51.7031C51.3816 51.6809 51.3692 51.6593 51.3574 51.637C51.5099 51.5008 51.707 51.4328 51.8929 51.3477Z" fill="#C08B77"/>
<path d="M44.2812 56.3951C44.4082 56.1896 44.477 55.9434 44.7035 55.8125C44.5994 56.0331 44.5019 56.2576 44.2812 56.3951Z" fill="#BF8572"/>
<path d="M59.4561 61.8154C59.4561 61.8743 59.4561 61.9333 59.4561 61.9922C59.3343 61.7683 59.1851 61.5536 59.2682 61.2812C59.3304 61.4593 59.3932 61.6374 59.4561 61.8154Z" fill="#DEC3B8"/>
<path d="M50.0243 49.3359C49.8639 49.4636 49.7022 49.5893 49.5438 49.7195C49.4816 49.7713 49.4377 49.7464 49.3926 49.6999C49.5955 49.5657 49.7749 49.3896 50.0243 49.3359Z" fill="#E4D3CA"/>
<path d="M47.592 60.8477C47.5894 61.1913 47.5868 61.535 47.5842 61.878C47.4912 61.5337 47.4762 61.19 47.592 60.8477Z" fill="#BE482C"/>
<path d="M55.4928 54.3789C55.3376 54.5033 55.2028 54.6061 55.0293 54.6689C55.0699 54.485 55.2002 54.4025 55.4928 54.3789Z" fill="#BE816D"/>
<path d="M43.6543 53.6631C43.7983 53.4254 43.8828 53.2474 44.1551 53.1328C43.9875 53.3462 43.9004 53.5217 43.6543 53.6631Z" fill="#C0816B"/>
<path d="M51.7072 60.4226C51.626 60.1824 51.7477 60.039 51.9415 59.9297C51.8793 60.1012 51.8283 60.2786 51.7072 60.4226Z" fill="#BC7E6B"/>
<path d="M43.9889 57.5458C43.9136 57.7212 43.8383 57.8967 43.7637 58.0721C43.7696 57.8679 43.7951 57.6715 43.9097 57.5078C43.9358 57.5203 43.9627 57.5327 43.9889 57.5458Z" fill="#C59886"/>
<path d="M48.1807 58.9336C48.2049 59.166 48.131 59.2714 48.0603 59.4507C47.9811 59.2236 48.0923 59.13 48.1807 58.9336Z" fill="#C18A76"/>
<path d="M51.2214 55.2783C51.2914 55.1506 51.3431 55.0033 51.5683 54.9922C51.4511 55.1225 51.3817 55.2514 51.2188 55.275C51.2188 55.275 51.2214 55.2783 51.2214 55.2783Z" fill="#B56E59"/>
<path d="M48.0067 59.8249C47.8758 59.9329 47.9374 60.1221 47.8333 60.2412C47.7999 60.092 47.8228 59.9506 47.8994 59.8197C47.9328 59.7627 47.974 59.7621 48.0067 59.8249Z" fill="#BE482C"/>
<path d="M55.7159 50.9284C55.5706 50.9631 55.4246 50.9985 55.2793 51.0332C55.4004 50.897 55.5353 50.8152 55.7159 50.9284Z" fill="#AD5845"/>
<path d="M51.1543 3.00994C51.529 2.9393 51.9012 2.88764 52.2641 3.07207C52.3871 3.1342 52.4904 3.18325 52.4754 3.3559C52.4702 3.41738 52.5526 3.49063 52.6036 3.55145C52.6448 3.6005 52.7612 3.63647 52.6945 3.70514C52.6068 3.7954 52.5186 3.69991 52.4787 3.6247C52.3361 3.3546 52.102 3.21726 51.8227 3.13551C51.7246 3.04656 51.6141 3.11458 51.5088 3.11C51.3825 3.10542 51.2465 3.1355 51.1543 3.00994Z" fill="#BE7058"/>
<path d="M51.1537 3.01172C51.3126 3.01237 51.4716 3.01237 51.6305 3.01368C51.7194 3.01433 51.8188 3.00256 51.8221 3.13794C51.2113 3.16214 50.605 3.38385 49.9883 3.19484C50.4036 3.30406 50.7685 3.0902 51.1537 3.01172Z" fill="#D0A08C"/>
<path d="M19.6866 23.9297C19.6578 23.901 19.629 23.8715 19.5996 23.8428C20.3007 23.1574 21.0587 22.5406 21.8468 21.9592C21.9076 21.9488 21.9272 21.9762 21.9154 22.0338C21.1731 22.6655 20.4295 23.2973 19.6866 23.9297Z" fill="#EAD8CF"/>
<path d="M27.974 18.2812C28.0537 18.2996 28.1499 18.2505 28.2127 18.3388C27.8458 18.5893 27.454 18.7966 27.0623 19.0046C26.9413 19.0504 26.8432 19.0504 26.8242 18.8875C27.2075 18.6854 27.5907 18.4833 27.974 18.2812Z" fill="#E8D5CB"/>
<path d="M26.8252 18.8906C26.8788 18.9823 26.9725 18.9914 27.0634 19.0078C26.8579 19.1787 26.6327 19.3076 26.2949 19.3999C26.5005 19.1806 26.5594 18.9325 26.8252 18.8906Z" fill="#CE9580"/>
<path d="M21.9164 22.0372C21.8935 22.0124 21.8706 21.9875 21.8477 21.9626C21.9923 21.7859 22.1684 21.6464 22.3727 21.5352C22.2561 21.7348 22.1193 21.9155 21.9164 22.0372Z" fill="#C98E79"/>
<path d="M50.0547 49.6196C50.2033 49.5089 50.3106 49.3335 50.5607 49.3008C50.3951 49.4671 50.2341 49.5574 50.0547 49.6196Z" fill="#BE482C"/>
<path d="M11.9998 27C11.2606 28.4164 10.623 29.5503 9.94839 31.0371C9.94064 31.0544 9.9303 31.0676 9.92341 31.0849C9.82519 31.3068 10 31.5 10 31.5C10 31.5 10.0862 31.8403 10 32C9.9138 32.1597 9.43538 31.992 9.5 32C9.03475 32.1488 9 32.5 9 31.5C9.03016 30.5779 9.60635 30.2308 9.92341 29.5C10.4326 28.3294 10.3835 27.5 11.4998 26.5C11.8177 26.5372 11.7758 26.6652 11.9998 27Z" fill="#BE482C"/>
<path d="M7.15655 34.6269C7.57542 34.4669 8.08431 34.5027 8.4055 34.123C8.62502 33.8627 8.80504 33.6091 8.76909 33.2747C8.70262 32.6441 8.83567 32.0922 9.32821 31.6557C9.57871 31.7321 9.83018 31.8088 10.0809 31.8843C10.0221 31.9614 9.97736 32.0521 9.90286 32.114C9.46133 32.4815 9.35799 32.9465 9.41049 33.4967C9.47281 34.1514 8.88807 34.778 8.17174 34.9244C7.78491 35.0038 7.37199 34.9936 7.00088 35.1267C7.05277 34.9601 7.10466 34.7935 7.15655 34.6269Z" fill="#BE482C"/>
<path d="M7.326 32.502C8.034 32.634 8.634 32.994 9.126 33.582C9.618 34.17 9.864 34.854 9.864 35.634C9.864 36.27 9.702 36.846 9.378 37.362C9.066 37.866 8.604 38.268 7.992 38.568C7.38 38.856 6.648 39 5.796 39H1.44V26.418H5.67C6.942 26.418 7.908 26.712 8.568 27.3C9.24 27.888 9.576 28.65 9.576 29.586C9.576 30.366 9.366 31.002 8.946 31.494C8.526 31.974 7.986 32.31 7.326 32.502ZM2.7 31.98H5.634C6.486 31.98 7.14 31.782 7.596 31.386C8.064 30.978 8.298 30.42 8.298 29.712C8.298 29.016 8.064 28.47 7.596 28.074C7.14 27.678 6.468 27.48 5.58 27.48H2.7V31.98ZM5.706 37.938C6.618 37.938 7.326 37.722 7.83 37.29C8.346 36.858 8.604 36.264 8.604 35.508C8.604 34.752 8.334 34.152 7.794 33.708C7.266 33.252 6.552 33.024 5.652 33.024H2.7V37.938H5.706ZM19.5602 36.012H13.8362L12.7382 39H11.4062L15.9962 26.58H17.4182L21.9902 39H20.6582L19.5602 36.012ZM19.1822 34.968L16.6982 28.164L14.2142 34.968H19.1822ZM30.7984 39L27.6844 33.744H25.3624V39H24.1024V26.418H27.8824C29.2864 26.418 30.3484 26.754 31.0684 27.426C31.8004 28.098 32.1664 28.98 32.1664 30.072C32.1664 30.984 31.9024 31.764 31.3744 32.412C30.8584 33.048 30.0904 33.462 29.0704 33.654L32.3104 39H30.7984ZM25.3624 32.718H27.9004C28.8844 32.718 29.6224 32.478 30.1144 31.998C30.6184 31.518 30.8704 30.876 30.8704 30.072C30.8704 29.244 30.6304 28.608 30.1504 28.164C29.6704 27.708 28.9144 27.48 27.8824 27.48H25.3624V32.718ZM38.4829 26.418C39.8749 26.418 41.0689 26.67 42.0649 27.174C43.0609 27.678 43.8229 28.404 44.3509 29.352C44.8789 30.3 45.1429 31.428 45.1429 32.736C45.1429 34.032 44.8789 35.154 44.3509 36.102C43.8229 37.038 43.0609 37.758 42.0649 38.262C41.0689 38.754 39.8749 39 38.4829 39H34.7569V26.418H38.4829ZM38.4829 37.956C40.2349 37.956 41.5669 37.5 42.4789 36.588C43.4029 35.664 43.8649 34.38 43.8649 32.736C43.8649 31.08 43.4029 29.79 42.4789 28.866C41.5669 27.93 40.2349 27.462 38.4829 27.462H36.0169V37.956H38.4829ZM53.2079 39.126C52.0439 39.126 50.9879 38.856 50.0399 38.316C49.0919 37.764 48.3419 37.002 47.7899 36.03C47.2499 35.046 46.9799 33.936 46.9799 32.7C46.9799 31.464 47.2499 30.36 47.7899 29.388C48.3419 28.404 49.0919 27.642 50.0399 27.102C50.9879 26.55 52.0439 26.274 53.2079 26.274C54.3839 26.274 55.4459 26.55 56.3939 27.102C57.3419 27.642 58.0859 28.404 58.6259 29.388C59.1659 30.36 59.4359 31.464 59.4359 32.7C59.4359 33.936 59.1659 35.046 58.6259 36.03C58.0859 37.002 57.3419 37.764 56.3939 38.316C55.4459 38.856 54.3839 39.126 53.2079 39.126ZM53.2079 38.028C54.1439 38.028 54.9839 37.812 55.7279 37.38C56.4719 36.948 57.0599 36.33 57.4919 35.526C57.9239 34.71 58.1399 33.768 58.1399 32.7C58.1399 31.632 57.9239 30.696 57.4919 29.892C57.0599 29.088 56.4719 28.47 55.7279 28.038C54.9839 27.606 54.1439 27.39 53.2079 27.39C52.2719 27.39 51.4319 27.606 50.6879 28.038C49.9439 28.47 49.3559 29.088 48.9239 29.892C48.4919 30.696 48.2759 31.632 48.2759 32.7C48.2759 33.768 48.4919 34.71 48.9239 35.526C49.3559 36.33 49.9439 36.948 50.6879 37.38C51.4319 37.812 52.2719 38.028 53.2079 38.028Z" fill="black"/>
</svg>
