<svg width="115" height="115" viewBox="0 0 115 115" fill="none" xmlns="http://www.w3.org/2000/svg">
<g clip-path="url(#clip0)">
<path d="M45.1596 7.99047C44.7871 7.91525 44.4779 7.76481 44.2243 7.53915C43.9707 7.31349 43.8042 7.02449 43.717 6.6761L44.6166 6.47419C44.7157 6.77111 44.898 6.99677 45.1635 7.15513C45.4291 7.31349 45.7739 7.34516 46.1939 7.25015C46.5942 7.15909 46.8914 6.98886 47.0777 6.73548C47.264 6.48211 47.3234 6.19706 47.2521 5.8843C47.1966 5.63885 47.0817 5.45278 46.9113 5.32609C46.7408 5.20336 46.5427 5.12418 46.3208 5.08855C46.0988 5.05292 45.8056 5.02917 45.437 5.01333C44.9852 4.9975 44.6166 4.96187 44.3353 4.9104C44.0539 4.85497 43.7963 4.73225 43.5585 4.5343C43.3207 4.33635 43.1582 4.03943 43.0671 3.63561C42.9878 3.28326 43.0076 2.95071 43.1265 2.63795C43.2454 2.32519 43.4475 2.05994 43.7408 1.83824C44.0301 1.61654 44.3868 1.45818 44.8069 1.36317C45.4132 1.22856 45.9443 1.26815 46.4 1.48193C46.8558 1.69968 47.1649 2.05203 47.3274 2.53898L46.4 2.7488C46.3128 2.50731 46.1345 2.32124 45.865 2.18267C45.5955 2.04411 45.2705 2.02035 44.8901 2.10349C44.5374 2.18267 44.2719 2.33707 44.0896 2.57065C43.9073 2.80423 43.8557 3.08136 43.9271 3.40995C43.9786 3.64353 44.0896 3.82168 44.256 3.94045C44.4225 4.05922 44.6127 4.13444 44.8227 4.17007C45.0367 4.20174 45.33 4.22946 45.7025 4.24925C46.1543 4.26905 46.5268 4.30864 46.8122 4.36406C47.0975 4.41949 47.3591 4.54617 47.6008 4.74412C47.8386 4.94207 48.0051 5.24295 48.0962 5.65073C48.1675 5.96744 48.1517 6.2802 48.0447 6.59692C47.9416 6.91364 47.7435 7.19472 47.4542 7.44018C47.1649 7.68563 46.7963 7.85983 46.3525 7.9588C45.9284 8.05778 45.5281 8.06569 45.1596 7.99047Z" fill="#FF7654"/>
<path d="M50.8381 6.70569C50.3071 6.46815 49.8672 6.10393 49.5224 5.62093C49.1776 5.13398 48.9755 4.57181 48.9121 3.9265C48.8487 3.28118 48.9398 2.6913 49.1855 2.14892C49.4312 1.60654 49.7879 1.1671 50.2675 0.830585C50.743 0.494073 51.2899 0.296125 51.9002 0.236741C52.5185 0.177356 53.0931 0.264453 53.6281 0.50595C54.1592 0.743488 54.5951 1.10375 54.9359 1.58675C55.2768 2.06974 55.4789 2.63587 55.5383 3.28514C55.6017 3.93441 55.5106 4.52826 55.2728 5.06668C55.035 5.6051 54.6744 6.04454 54.1948 6.37709C53.7153 6.71361 53.1684 6.91155 52.5502 6.97094C51.9438 7.03428 51.3692 6.94323 50.8381 6.70569ZM53.6955 5.78721C54.0443 5.53779 54.3058 5.20128 54.4762 4.78559C54.6506 4.36594 54.71 3.89878 54.6585 3.37224C54.607 2.84174 54.4564 2.39042 54.2067 2.01827C53.9571 1.64613 53.64 1.369 53.2516 1.19085C52.8633 1.0127 52.4392 0.945395 51.9716 0.988944C51.5039 1.03249 51.0997 1.18293 50.7509 1.43235C50.4062 1.68176 50.1446 2.01432 49.9742 2.43001C49.8038 2.8457 49.7404 3.31681 49.7919 3.84732C49.8434 4.3699 49.994 4.82122 50.2437 5.19732C50.4933 5.57342 50.8144 5.85055 51.2027 6.0287C51.5911 6.20686 52.0191 6.27416 52.4788 6.23061C52.9425 6.1831 53.3468 6.03662 53.6955 5.78721Z" fill="#FF7654"/>
<path d="M63.8295 0.340471L63.4966 6.90839L62.6327 6.86484L62.8823 1.96761L60.449 6.75399L59.8427 6.72232L57.8968 1.70631L57.6472 6.61147L56.7832 6.56792L57.1121 0L58.0435 0.0475076L60.1994 5.59798L62.9061 0.292963L63.8295 0.340471Z" fill="#FF7654"/>
<path d="M66.0886 6.99143C65.6487 6.60741 65.3356 6.1363 65.1493 5.57017C64.9631 5.00403 64.9353 4.40623 65.0621 3.7728C65.189 3.13936 65.4505 2.60094 65.8429 2.15358C66.2352 1.70622 66.7068 1.39346 67.2616 1.21135C67.8165 1.02923 68.3951 0.997562 68.9975 1.12029C69.6078 1.24302 70.1309 1.49639 70.5708 1.88041C71.0107 2.26443 71.3238 2.73555 71.5061 3.29772C71.6884 3.85989 71.7161 4.4577 71.5893 5.09905C71.4625 5.7404 71.2009 6.27882 70.8126 6.72618C70.4242 7.16959 69.9526 7.4863 69.3977 7.66842C68.8429 7.85053 68.2603 7.87824 67.654 7.75551C67.0476 7.62487 66.5285 7.37545 66.0886 6.99143ZM69.0926 6.94393C69.5008 6.80536 69.8456 6.56387 70.1349 6.21548C70.4242 5.86709 70.6184 5.43556 70.7214 4.9209C70.8284 4.39831 70.8165 3.92324 70.6857 3.49171C70.555 3.06018 70.333 2.70388 70.016 2.41883C69.6989 2.13378 69.3106 1.94771 68.8508 1.8527C68.3911 1.75768 67.9592 1.78144 67.5549 1.92C67.1507 2.05856 66.8059 2.30006 66.5206 2.64449C66.2352 2.98892 66.0371 3.42441 65.9301 3.94699C65.827 4.46166 65.8389 4.93673 65.9657 5.36826C66.0925 5.79979 66.3184 6.16005 66.6394 6.4451C66.9605 6.73014 67.3488 6.91621 67.8006 7.01123C68.2524 7.10624 68.6844 7.08249 69.0926 6.94393Z" fill="#FF7654"/>
<path d="M72.7597 8.80598C72.4823 8.54864 72.2921 8.25964 72.197 7.935C72.1018 7.61037 72.1058 7.27782 72.2128 6.93339L73.0886 7.22635C73.0213 7.53119 73.0569 7.82019 73.2036 8.09336C73.3502 8.36653 73.6276 8.5724 74.0358 8.71096C74.4282 8.84161 74.769 8.84952 75.0583 8.73076C75.3476 8.61199 75.5457 8.3982 75.6488 8.09336C75.728 7.85187 75.728 7.63412 75.6488 7.44013C75.5656 7.24614 75.4387 7.07591 75.2683 6.92943C75.0979 6.78295 74.8562 6.60875 74.551 6.40684C74.1745 6.15743 73.8773 5.93969 73.6633 5.7457C73.4493 5.55171 73.2947 5.31021 73.1956 5.02121C73.0966 4.7322 73.1124 4.39173 73.2432 3.99979C73.3581 3.65932 73.5484 3.3822 73.8099 3.18029C74.0715 2.97442 74.3885 2.85169 74.7531 2.81606C75.1177 2.78043 75.5021 2.82794 75.9103 2.9665C76.5008 3.16445 76.9328 3.47325 77.2063 3.89686C77.4797 4.32047 77.5629 4.77971 77.448 5.2825L76.5484 4.97766C76.5999 4.72824 76.5444 4.47487 76.3859 4.21358C76.2234 3.95625 75.9619 3.76621 75.5933 3.63953C75.2525 3.52472 74.9434 3.5168 74.6659 3.62369C74.3885 3.72662 74.1983 3.94041 74.0913 4.25713C74.016 4.48675 74.016 4.69261 74.0953 4.88264C74.1745 5.06871 74.2974 5.23499 74.4638 5.37355C74.6263 5.51212 74.8641 5.68631 75.1732 5.9001C75.5497 6.15347 75.843 6.37913 76.0609 6.57312C76.2749 6.77107 76.4335 7.01257 76.5365 7.30553C76.6395 7.59849 76.6237 7.94292 76.489 8.33882C76.3859 8.64366 76.2076 8.90495 75.9539 9.12269C75.7003 9.33648 75.3872 9.47504 75.0107 9.53838C74.6342 9.59777 74.23 9.55818 73.798 9.4117C73.3859 9.26522 73.0411 9.06331 72.7597 8.80598Z" fill="#FF7654"/>
<path d="M84.1632 10.5385C84.2662 10.7721 84.3138 11.0175 84.3098 11.2828C84.3058 11.5441 84.2385 11.7935 84.1156 12.031C83.9611 12.3279 83.7431 12.5576 83.4657 12.7159C83.1883 12.8743 82.8712 12.9455 82.5066 12.9337C82.146 12.9178 81.7695 12.8109 81.3732 12.6051L79.1855 11.457L82.2649 5.59375L84.3692 6.6983C84.7695 6.90813 85.0747 7.14962 85.2847 7.43071C85.4948 7.7118 85.6137 7.99684 85.6335 8.29772C85.6572 8.59464 85.5938 8.88365 85.4472 9.16474C85.2649 9.51312 85.0192 9.75066 84.714 9.87735C84.4049 10.004 84.072 10.0397 83.7114 9.98028C83.9095 10.1188 84.0601 10.3049 84.1632 10.5385ZM82.677 12.13C82.9861 12.0627 83.2239 11.8687 83.3904 11.548C83.5608 11.2234 83.5846 10.9067 83.4577 10.6018C83.3309 10.297 83.0813 10.0436 82.7048 9.84568L81.3732 9.1489L80.2873 11.2194L81.6427 11.9321C82.0231 12.134 82.3679 12.1973 82.677 12.13ZM81.7061 8.51942L82.9941 9.19641C83.3547 9.38644 83.6757 9.44582 83.9611 9.38248C84.2464 9.31518 84.4683 9.13702 84.6229 8.8401C84.7774 8.54318 84.8052 8.25813 84.6942 7.98892C84.5872 7.71575 84.3455 7.48614 83.9769 7.29215L82.7048 6.62704L81.7061 8.51942Z" fill="#FF7654"/>
<path d="M88.2312 15.1215L85.8454 13.4904L84.5733 14.405L83.8203 13.8903L89.5192 9.80859L90.3435 10.3708L88.5918 17.1525L87.8388 16.6378L88.2312 15.1215ZM88.4254 14.401L89.329 10.9646L86.4478 13.047L88.4254 14.401Z" fill="#FF7654"/>
<path d="M91.8835 20.0072L92.47 16.9271L91.6814 16.2422L89.902 18.285L89.248 17.7189L93.5995 12.7227L95.2125 14.1241C95.589 14.4527 95.8545 14.7932 96.0011 15.1495C96.1477 15.5058 96.1913 15.8502 96.1319 16.1828C96.0685 16.5153 95.9139 16.8202 95.6682 17.1052C95.367 17.4497 95.0064 17.6674 94.5784 17.7585C94.1504 17.8495 93.7025 17.7664 93.2309 17.5051L92.6642 20.6881L91.8835 20.0072ZM92.1371 15.7196L93.1001 16.5549C93.4529 16.8637 93.7937 17.0063 94.1226 16.9865C94.4516 16.9667 94.7448 16.8083 94.9985 16.5193C95.2561 16.2224 95.367 15.9175 95.3353 15.6048C95.3036 15.292 95.1055 14.9793 94.7488 14.6665L93.7858 13.8312L92.1371 15.7196Z" fill="#FF7654"/>
<path d="M100.706 20.1635C100.86 20.7376 100.848 21.2958 100.666 21.8382C100.484 22.3845 100.143 22.8833 99.6397 23.3386C99.1363 23.7939 98.6053 24.0829 98.0465 24.2096C97.4877 24.3363 96.9329 24.2888 96.382 24.075C95.8311 23.8612 95.312 23.4851 94.8285 22.9506L93.4414 21.4225L98.3517 16.9766L99.7387 18.5047C100.226 19.0392 100.547 19.5934 100.706 20.1635ZM97.1786 23.4653C97.8166 23.493 98.4388 23.2357 99.0452 22.6854C99.6555 22.1311 99.9805 21.5333 100.02 20.888C100.06 20.2427 99.7942 19.6053 99.2235 18.9758L98.419 18.089L94.559 21.5848L95.3635 22.4716C95.9342 23.105 96.5405 23.4376 97.1786 23.4653Z" fill="#FF7654"/>
<path d="M98.8277 27.1655C98.7801 26.5836 98.8831 26.0253 99.1407 25.4909C99.3983 24.9564 99.7946 24.5051 100.33 24.1409C100.865 23.7767 101.427 23.5668 102.018 23.5193C102.612 23.4718 103.171 23.5708 103.694 23.8281C104.221 24.0815 104.657 24.4616 105.002 24.9683C105.355 25.479 105.553 26.0253 105.604 26.6073C105.652 27.1893 105.549 27.7435 105.291 28.274C105.034 28.8045 104.634 29.2559 104.095 29.624C103.556 29.9922 102.993 30.202 102.402 30.2535C101.816 30.305 101.257 30.202 100.734 29.9487C100.207 29.6953 99.7709 29.3113 99.4182 28.8006C99.0734 28.2899 98.8752 27.7475 98.8277 27.1655ZM101.015 29.2202C101.404 29.4023 101.82 29.4696 102.272 29.4182C102.719 29.3667 103.163 29.1925 103.595 28.8956C104.035 28.5947 104.356 28.2424 104.562 27.8465C104.768 27.4466 104.855 27.0349 104.828 26.6113C104.796 26.1877 104.649 25.7799 104.384 25.3959C104.118 25.0079 103.793 24.7268 103.405 24.5447C103.021 24.3626 102.6 24.2992 102.157 24.3467C101.709 24.3942 101.265 24.5724 100.829 24.8733C100.393 25.1702 100.072 25.5186 99.866 25.9224C99.6559 26.3223 99.5687 26.738 99.6005 27.1655C99.6322 27.5931 99.7788 27.9969 100.04 28.377C100.306 28.7531 100.631 29.0342 101.015 29.2202Z" fill="#FF7654"/>
<path d="M107.952 36.1982L107.286 36.503L105.697 33.0587L106.363 32.7539L107.952 36.1982Z" fill="#FF7654"/>
<path d="M110.803 40.2397C111.378 40.3862 111.873 40.6673 112.285 41.079C112.698 41.4907 112.983 41.9935 113.145 42.5874C113.332 43.2842 113.328 43.9374 113.13 44.5471C112.931 45.1567 112.555 45.6635 112.004 46.0713L111.735 45.0696C112.071 44.7886 112.301 44.4521 112.42 44.0641C112.539 43.6761 112.535 43.2485 112.412 42.7814C112.293 42.334 112.079 41.9619 111.778 41.6649C111.473 41.3641 111.104 41.1661 110.668 41.0671C110.233 40.9682 109.757 40.988 109.242 41.1265C108.734 41.2611 108.314 41.4828 107.985 41.7877C107.657 42.0925 107.435 42.4488 107.324 42.8605C107.209 43.2723 107.213 43.6998 107.336 44.1472C107.462 44.6104 107.668 44.9826 107.966 45.2636C108.259 45.5408 108.624 45.7189 109.059 45.7902L109.329 46.7918C108.651 46.7166 108.077 46.4632 107.605 46.0356C107.133 45.6041 106.801 45.0419 106.614 44.3452C106.456 43.7513 106.448 43.1733 106.598 42.6151C106.745 42.0529 107.03 41.566 107.45 41.1503C107.871 40.7346 108.394 40.4456 109.02 40.2753C109.63 40.1011 110.229 40.0932 110.803 40.2397Z" fill="#FF7654"/>
<path d="M108.172 49.6032C108.398 49.0647 108.75 48.6213 109.226 48.265C109.702 47.9087 110.264 47.6949 110.906 47.6158C111.548 47.5366 112.143 47.6158 112.694 47.8454C113.241 48.075 113.688 48.4234 114.037 48.8945C114.386 49.3617 114.596 49.904 114.667 50.5137C114.743 51.1313 114.667 51.7054 114.441 52.2438C114.215 52.7822 113.867 53.2256 113.391 53.578C112.916 53.9303 112.353 54.1441 111.707 54.2233C111.057 54.3025 110.462 54.2272 109.916 54.0016C109.369 53.7759 108.925 53.4275 108.576 52.9564C108.227 52.4892 108.017 51.9469 107.942 51.3293C107.871 50.7156 107.946 50.1416 108.172 49.6032ZM109.159 52.4378C109.416 52.7782 109.757 53.0316 110.181 53.1939C110.605 53.3563 111.077 53.4077 111.6 53.3444C112.127 53.281 112.579 53.1187 112.943 52.8614C113.312 52.6041 113.581 52.2794 113.752 51.8875C113.922 51.4955 113.978 51.068 113.922 50.6048C113.867 50.1376 113.708 49.7378 113.451 49.3973C113.193 49.0568 112.852 48.8074 112.436 48.6451C112.016 48.4828 111.544 48.4313 111.013 48.4946C110.49 48.558 110.042 48.7203 109.674 48.9776C109.301 49.235 109.032 49.5636 108.861 49.9555C108.691 50.3474 108.636 50.775 108.691 51.2343C108.746 51.6935 108.901 52.0933 109.159 52.4378Z" fill="#FF7654"/>
<path d="M109.075 56.4503L109.11 58.7663L108.405 58.7782L108.354 55.5952L114.984 55.4883L115 56.3513L109.075 56.4503Z" fill="#FF7654"/>
<path d="M114.211 60.8649L111.999 60.7026L111.821 63.1096L111.108 63.0582L111.286 60.6511L109.011 60.4848L108.813 63.1769L108.104 63.1255L108.365 59.5703L114.987 60.0573L114.726 63.6124L114.012 63.5609L114.211 60.8649Z" fill="#FF7654"/>
<path d="M112.97 65.3211C113.422 65.7051 113.743 66.1723 113.937 66.7226C114.128 67.2729 114.167 67.8469 114.048 68.4527C113.914 69.1613 113.62 69.7472 113.176 70.2104C112.733 70.6736 112.174 70.9666 111.496 71.0893L111.69 70.0719C112.118 69.965 112.471 69.767 112.744 69.4661C113.022 69.1692 113.204 68.7812 113.295 68.3101C113.383 67.8548 113.355 67.4273 113.212 67.0274C113.069 66.6276 112.824 66.2871 112.475 66.006C112.126 65.7249 111.69 65.5349 111.167 65.4359C110.652 65.3369 110.176 65.3528 109.748 65.4834C109.32 65.6141 108.964 65.8397 108.682 66.1604C108.401 66.4811 108.219 66.8691 108.131 67.3204C108.04 67.7915 108.068 68.2191 108.211 68.5991C108.353 68.9792 108.603 69.2959 108.964 69.5532L108.77 70.5707C108.195 70.2104 107.787 69.7314 107.549 69.1376C107.311 68.5437 107.26 67.8905 107.398 67.1818C107.513 66.5801 107.763 66.0575 108.139 65.618C108.516 65.1786 108.988 64.8619 109.546 64.6758C110.105 64.4858 110.704 64.4541 111.338 64.5768C111.976 64.6837 112.519 64.9371 112.97 65.3211Z" fill="#FF7654"/>
<path d="M111.6 77.1428L110.93 76.929L111.481 75.2108L105.838 73.4055L106.103 72.582L111.747 74.3873L112.302 72.6573L112.971 72.871L111.6 77.1428Z" fill="#FF7654"/>
<path d="M110.737 79.2662L104.586 76.7998L104.907 75.9961L111.062 78.4625L110.737 79.2662Z" fill="#FF7654"/>
<path d="M107.573 85.921L102.773 80.715L103.221 79.8242L110.268 80.5645L109.855 81.388L103.812 80.6833L107.985 85.1055L107.573 85.921Z" fill="#FF7654"/>
<path d="M100.824 84.8904C101.347 84.6331 101.906 84.5301 102.5 84.5776C103.095 84.6252 103.658 84.831 104.193 85.1952C104.728 85.5595 105.124 86.0068 105.386 86.5413C105.647 87.0758 105.754 87.634 105.707 88.2159C105.659 88.7979 105.461 89.3403 105.116 89.847C104.767 90.3617 104.327 90.7457 103.804 91.003C103.281 91.2604 102.722 91.3633 102.136 91.3158C101.545 91.2683 100.983 91.0585 100.444 90.6903C99.9046 90.3221 99.5044 89.8747 99.2428 89.3442C98.9812 88.8137 98.8782 88.2595 98.9218 87.6775C98.9693 87.0955 99.1675 86.5492 99.5162 86.0345C99.865 85.5318 100.301 85.1477 100.824 84.8904ZM99.7025 87.6736C99.6708 88.1011 99.762 88.5129 99.972 88.9167C100.182 89.3165 100.503 89.6649 100.939 89.9618C101.379 90.2627 101.823 90.4369 102.271 90.4844C102.718 90.5319 103.135 90.4646 103.519 90.2825C103.903 90.1004 104.228 89.8153 104.494 89.4274C104.759 89.0394 104.906 88.6356 104.934 88.208C104.961 87.7844 104.874 87.3727 104.664 86.9728C104.458 86.573 104.133 86.2246 103.693 85.9277C103.257 85.6307 102.817 85.4605 102.366 85.409C101.918 85.3615 101.498 85.4288 101.109 85.6109C100.721 85.797 100.4 86.0781 100.138 86.4621C99.8808 86.8422 99.7342 87.246 99.7025 87.6736Z" fill="#FF7654"/>
<path d="M93.7776 95.2228L95.8067 93.1642L95.129 91.7508L95.7711 91.1016L98.783 97.428L98.0815 98.1367L91.7129 95.2149L92.3549 94.5657L93.7776 95.2228ZM94.4514 95.5396L97.6773 97.0361L96.1357 93.8372L94.4514 95.5396Z" fill="#FF7654"/>
<path d="M88.3221 97.9549L91.2508 99.0753L92.0672 98.422L90.367 96.3119L91.0407 95.7695L95.194 100.932L93.5256 102.27C93.1372 102.583 92.7528 102.781 92.3763 102.864C91.9998 102.947 91.655 102.927 91.338 102.809C91.0209 102.69 90.7475 102.484 90.5137 102.191C90.2283 101.835 90.0777 101.439 90.0658 101.003C90.0539 100.568 90.2164 100.14 90.5533 99.7206L87.5176 98.6002L88.3221 97.9549ZM92.4991 98.9644L91.5044 99.7641C91.1398 100.057 90.9377 100.37 90.8981 100.694C90.8624 101.023 90.9615 101.336 91.2032 101.637C91.4489 101.942 91.7303 102.108 92.0474 102.132C92.3644 102.155 92.7052 102.017 93.0778 101.72L94.0725 100.924L92.4991 98.9644Z" fill="#FF7654"/>
<path d="M86.7778 106.992L86.3974 106.402L87.9152 105.424L84.7012 100.452L85.4264 99.9844L88.6405 104.957L90.1662 103.971L90.5467 104.561L86.7778 106.992Z" fill="#FF7654"/>
<path d="M84.7586 108.087L81.5684 102.279L82.3293 101.863L85.5195 107.671L84.7586 108.087ZM85.0122 109.579L86.2685 107.655L86.5816 108.221L85.3768 110.237L85.0122 109.579Z" fill="#FF7654"/>
<path d="M79.6143 103.473C79.9948 103.473 80.3277 103.556 80.6209 103.726C80.9142 103.896 81.1361 104.142 81.2947 104.47L80.4545 104.85C80.296 104.581 80.074 104.395 79.7808 104.296C79.4875 104.197 79.1467 104.233 78.7543 104.411C78.3778 104.581 78.1242 104.811 77.9934 105.096C77.8626 105.381 77.8626 105.67 77.9974 105.967C78.1004 106.196 78.251 106.355 78.4452 106.442C78.6394 106.529 78.8455 106.565 79.0714 106.553C79.2973 106.541 79.5905 106.505 79.9512 106.446C80.395 106.371 80.7636 106.327 81.0489 106.323C81.3343 106.319 81.6157 106.386 81.8852 106.533C82.1546 106.679 82.3766 106.937 82.547 107.313C82.6976 107.641 82.7451 107.97 82.6936 108.303C82.6421 108.631 82.4955 108.936 82.2537 109.209C82.012 109.486 81.6989 109.712 81.3066 109.89C80.7398 110.147 80.2127 110.215 79.7253 110.096C79.2378 109.977 78.8613 109.696 78.6037 109.249L79.4717 108.857C79.6064 109.075 79.8204 109.221 80.1137 109.3C80.4069 109.379 80.7319 109.34 81.0807 109.178C81.4096 109.027 81.6394 108.821 81.7702 108.556C81.901 108.291 81.897 108.006 81.7583 107.701C81.6593 107.483 81.5166 107.333 81.3303 107.25C81.1441 107.166 80.9419 107.131 80.7279 107.143C80.5139 107.155 80.2207 107.186 79.8481 107.246C79.4003 107.317 79.0317 107.352 78.7385 107.356C78.4492 107.36 78.1638 107.289 77.8904 107.147C77.6169 107.004 77.391 106.743 77.2206 106.359C77.0859 106.066 77.0383 105.753 77.078 105.42C77.1176 105.092 77.2523 104.775 77.4822 104.474C77.716 104.173 78.041 103.928 78.4531 103.742C78.8455 103.568 79.2339 103.473 79.6143 103.473Z" fill="#FF7654"/>
<path d="M73.658 112.681L73.436 112.016L75.1481 111.442L73.2656 105.828L74.086 105.555L75.9684 111.168L77.6923 110.59L77.9143 111.256L73.658 112.681Z" fill="#FF7654"/>
<path d="M71.426 113.237L69.7773 106.823L70.6175 106.609L72.2662 113.023L71.426 113.237Z" fill="#FF7654"/>
<path d="M69.1907 112.222C68.9846 112.777 68.6557 113.24 68.2039 113.608C67.7521 113.976 67.2211 114.206 66.6147 114.305C65.9014 114.419 65.2514 114.344 64.6649 114.087C64.0784 113.83 63.6107 113.402 63.266 112.808L64.2884 112.646C64.5341 113.01 64.8433 113.271 65.2197 113.43C65.5962 113.588 66.0203 113.628 66.4958 113.552C66.9516 113.481 67.3479 113.307 67.6768 113.038C68.0058 112.769 68.2435 112.42 68.3862 111.997C68.5289 111.573 68.5606 111.098 68.4774 110.571C68.3941 110.053 68.2198 109.613 67.9503 109.257C67.6808 108.901 67.3479 108.643 66.9516 108.489C66.5553 108.335 66.1273 108.295 65.6715 108.366C65.196 108.441 64.8036 108.612 64.4945 108.877C64.1854 109.142 63.9753 109.483 63.8565 109.906L62.834 110.069C62.9767 109.403 63.2897 108.857 63.7653 108.434C64.2409 108.01 64.8393 107.737 65.5526 107.622C66.159 107.523 66.7336 107.578 67.2805 107.784C67.8274 107.99 68.2792 108.323 68.6478 108.782C69.0163 109.241 69.2541 109.791 69.3532 110.429C69.4483 111.07 69.3968 111.668 69.1907 112.222Z" fill="#FF7654"/>
<path d="M60.1323 108.639C60.6436 108.916 61.0518 109.312 61.3569 109.822C61.6621 110.333 61.8206 110.911 61.8325 111.556C61.8444 112.202 61.7057 112.788 61.4203 113.306C61.135 113.829 60.7426 114.237 60.2393 114.533C59.736 114.83 59.1772 114.985 58.563 114.997C57.9408 115.009 57.374 114.874 56.8628 114.597C56.3516 114.316 55.9434 113.924 55.6422 113.417C55.341 112.91 55.1864 112.328 55.1746 111.675C55.1627 111.022 55.2974 110.436 55.5788 109.917C55.8602 109.399 56.2525 108.991 56.7558 108.694C57.2591 108.397 57.8179 108.243 58.4401 108.231C59.0583 108.223 59.6211 108.357 60.1323 108.639ZM57.2116 109.331C56.843 109.553 56.5577 109.866 56.3516 110.27C56.1455 110.673 56.0504 111.137 56.0583 111.663C56.0662 112.194 56.1812 112.657 56.4031 113.049C56.6211 113.441 56.9183 113.742 57.2908 113.951C57.6633 114.161 58.0834 114.26 58.5511 114.252C59.0187 114.244 59.4388 114.13 59.7994 113.908C60.1601 113.686 60.4494 113.373 60.6515 112.978C60.8576 112.578 60.9527 112.111 60.9448 111.58C60.9368 111.054 60.8219 110.594 60.6 110.198C60.378 109.803 60.0848 109.502 59.7083 109.292C59.3318 109.082 58.9157 108.983 58.452 108.991C57.9883 108.999 57.5801 109.11 57.2116 109.331Z" fill="#FF7654"/>
<path d="M47.5566 111.283L47.6676 110.559L51.4206 111.125L51.3097 111.849L47.5566 111.283Z" fill="#FF7654"/>
<path d="M39.572 108.408C39.4293 108.198 39.3381 107.96 39.2946 107.703C39.2549 107.446 39.2708 107.188 39.354 106.935C39.4531 106.614 39.6274 106.353 39.8732 106.147C40.1189 105.941 40.4201 105.815 40.7767 105.763C41.1334 105.712 41.5258 105.755 41.9498 105.886L44.3078 106.626L42.3184 112.945L40.0515 112.232C39.6235 112.098 39.2787 111.912 39.0211 111.674C38.7635 111.436 38.5971 111.175 38.5218 110.886C38.4465 110.597 38.4583 110.3 38.5535 109.999C38.6723 109.623 38.8705 109.346 39.1519 109.168C39.4333 108.986 39.7543 108.895 40.1228 108.891C39.8969 108.78 39.7146 108.618 39.572 108.408ZM42.3501 109.96L40.963 109.524C40.5746 109.402 40.2496 109.398 39.9802 109.512C39.7107 109.627 39.5284 109.845 39.4253 110.166C39.3263 110.486 39.35 110.771 39.5046 111.017C39.6592 111.266 39.9366 111.452 40.3368 111.575L41.7081 112.007L42.3501 109.96ZM40.753 106.579C40.4637 106.702 40.2615 106.931 40.1545 107.276C40.0436 107.624 40.0792 107.941 40.2576 108.218C40.4359 108.495 40.7292 108.701 41.1334 108.828L42.568 109.279L43.2695 107.05L41.8071 106.591C41.395 106.46 41.0423 106.456 40.753 106.579Z" fill="#FF7654"/>
<path d="M37.5847 104.691C37.9256 105.167 38.1197 105.697 38.1713 106.291C38.2228 106.885 38.1118 107.471 37.8423 108.061C37.5728 108.65 37.1924 109.114 36.7089 109.458C36.2254 109.802 35.6904 110 35.1118 110.052C34.5292 110.099 33.9585 109.996 33.4037 109.739C32.8409 109.478 32.3892 109.114 32.0483 108.639C31.7075 108.163 31.5133 107.633 31.4658 107.047C31.4182 106.457 31.5292 105.867 31.8026 105.277C32.0761 104.684 32.4526 104.216 32.9321 103.872C33.4116 103.528 33.9427 103.334 34.5252 103.282C35.1078 103.231 35.6785 103.338 36.2452 103.599C36.7961 103.852 37.2479 104.22 37.5847 104.691ZM34.6521 104.046C34.2241 104.086 33.8317 104.244 33.4711 104.517C33.1104 104.79 32.8211 105.167 32.5992 105.642C32.3773 106.125 32.2782 106.592 32.3059 107.039C32.3337 107.487 32.4684 107.886 32.7102 108.235C32.9519 108.583 33.2888 108.856 33.7128 109.054C34.1408 109.252 34.5649 109.327 34.9889 109.288C35.413 109.248 35.8053 109.09 36.162 108.821C36.5187 108.551 36.8119 108.175 37.0339 107.688C37.2558 107.209 37.3509 106.746 37.3271 106.295C37.3034 105.844 37.1646 105.444 36.9189 105.091C36.6732 104.739 36.3403 104.47 35.9202 104.276C35.5041 104.082 35.0801 104.007 34.6521 104.046Z" fill="#FF7654"/>
<path d="M25.6143 103.01C25.5588 103.434 25.6182 103.83 25.7966 104.198C25.9749 104.566 26.2563 104.875 26.6447 105.124C27.033 105.374 27.4412 105.512 27.8692 105.536C28.2973 105.56 28.7055 105.461 29.1018 105.247C29.4941 105.029 29.8349 104.705 30.1163 104.269C30.3977 103.834 30.5562 103.394 30.5919 102.947C30.6275 102.503 30.5483 102.088 30.3501 101.712C30.1559 101.332 29.8627 101.015 29.4743 100.766C28.9313 100.413 28.3805 100.286 27.8177 100.385C27.255 100.484 26.7675 100.789 26.3514 101.304L28.5707 102.741L28.1863 103.327L25.1942 101.391L25.5548 100.833C25.8956 100.401 26.3078 100.077 26.7992 99.8549C27.2906 99.6332 27.8058 99.5422 28.3488 99.5778C28.8917 99.6134 29.4069 99.7916 29.8983 100.108C30.4135 100.441 30.8059 100.868 31.0754 101.387C31.3449 101.906 31.4637 102.46 31.432 103.05C31.4003 103.64 31.2101 104.206 30.8574 104.748C30.5047 105.291 30.0648 105.698 29.5377 105.972C29.0106 106.245 28.4558 106.363 27.8692 106.332C27.2867 106.3 26.7358 106.114 26.2206 105.782C25.6301 105.397 25.2021 104.914 24.9366 104.329C24.6711 103.743 24.6076 103.117 24.7424 102.448L25.6143 103.01Z" fill="#FF7654"/>
<path d="M25.1728 97.2339C25.3669 97.7842 25.4066 98.3504 25.2877 98.9323C25.1688 99.5143 24.8993 100.049 24.4753 100.54C24.0512 101.031 23.5598 101.371 22.997 101.565C22.4343 101.763 21.8676 101.803 21.2969 101.688C20.7262 101.573 20.207 101.316 19.7434 100.912C19.2757 100.504 18.9428 100.025 18.7486 99.4747C18.5544 98.9244 18.5188 98.3622 18.6337 97.7842C18.7526 97.2062 19.0221 96.6717 19.4501 96.1769C19.8781 95.686 20.3735 95.3415 20.9283 95.1436C21.4831 94.9456 22.0499 94.906 22.6205 95.0209C23.1912 95.1357 23.7143 95.397 24.182 95.8047C24.6536 96.2086 24.9825 96.6836 25.1728 97.2339ZM22.5373 95.7968C22.1172 95.7176 21.6932 95.7572 21.2731 95.9195C20.8491 96.0819 20.4686 96.359 20.1199 96.7588C19.7711 97.1587 19.5452 97.5784 19.4461 98.0178C19.3471 98.4572 19.3629 98.8769 19.5016 99.2807C19.6364 99.6845 19.8821 100.041 20.2387 100.346C20.5954 100.651 20.9798 100.845 21.3999 100.924C21.82 101.003 22.2401 100.963 22.6602 100.801C23.0803 100.639 23.4647 100.362 23.8134 99.9577C24.1582 99.5618 24.3841 99.1421 24.4832 98.7027C24.5823 98.2633 24.5664 97.8396 24.4277 97.4319C24.289 97.0281 24.0472 96.6718 23.6945 96.3669C23.3458 96.07 22.9614 95.876 22.5373 95.7968Z" fill="#FF7654"/>
<path d="M13.3555 94.3577L13.8786 93.8866L15.0913 95.2247L19.4863 91.2539L20.0689 91.8953L15.6739 95.8661L16.8945 97.2121L16.3714 97.6833L13.3555 94.3577Z" fill="#FF7654"/>
<path d="M9.16305 91.1816L11.2278 92.1872L10.7047 92.5672L8.55273 91.621L9.16305 91.1816ZM14.2041 86.9099L15.8963 89.2496L17.4022 88.8181L17.9373 89.5584L11.1921 91.4746L10.6056 90.6669L14.5488 84.8789L15.0839 85.6192L14.2041 86.9099ZM13.776 87.5195L11.7628 90.4492L15.179 89.4594L13.776 87.5195Z" fill="#FF7654"/>
<path d="M3.43945 83.1699L14.0406 80.6758L14.429 81.4359L3.8318 83.938L3.43945 83.1699Z" fill="#FF7654"/>
<path d="M5.10185 77.2639C4.51928 77.1451 4.01597 76.8878 3.584 76.4998C3.15203 76.1118 2.84291 75.6209 2.65268 75.035C2.43075 74.3461 2.40697 73.6929 2.57342 73.0753C2.73987 72.4577 3.09258 71.9311 3.62759 71.4996L3.94464 72.4854C3.61967 72.7823 3.40963 73.1268 3.31055 73.5227C3.21147 73.9186 3.23525 74.3422 3.38188 74.8014C3.52455 75.2408 3.75441 75.6051 4.07146 75.8862C4.3885 76.1712 4.76895 76.3494 5.20885 76.4285C5.64875 76.5077 6.12432 76.4642 6.63159 76.3018C7.13094 76.1395 7.53913 75.902 7.85221 75.5813C8.16529 75.2606 8.36741 74.8925 8.46252 74.4768C8.55367 74.0611 8.5299 73.6335 8.39119 73.1941C8.24456 72.7348 8.01866 72.3746 7.70954 72.1093C7.40042 71.844 7.0279 71.6857 6.59196 71.6342L6.27492 70.6484C6.9526 70.692 7.53913 70.9137 8.03451 71.3215C8.5299 71.7292 8.88657 72.2756 9.10454 72.9644C9.2908 73.5504 9.32647 74.1244 9.20362 74.6945C9.08076 75.2646 8.82316 75.7634 8.42289 76.1989C8.02262 76.6344 7.51535 76.9472 6.90108 77.1451C6.27888 77.3431 5.68046 77.3827 5.10185 77.2639Z" fill="#FF7654"/>
<path d="M7.27931 67.7933C7.08115 68.3396 6.75222 68.8028 6.28854 69.1789C5.82883 69.555 5.27796 69.7965 4.64387 69.9073C4.00582 70.0142 3.4074 69.9667 2.84861 69.7648C2.28982 69.5629 1.82614 69.2343 1.45758 68.783C1.08901 68.3317 0.851228 67.8051 0.748188 67.1994C0.645149 66.5858 0.692705 66.0078 0.890858 65.4614C1.08901 64.9151 1.41794 64.4519 1.87766 64.0797C2.33341 63.7076 2.88428 63.4661 3.53025 63.3552C4.17227 63.2444 4.77465 63.2919 5.32948 63.4938C5.88431 63.6957 6.34799 64.0204 6.71655 64.4717C7.08512 64.923 7.3229 65.4535 7.42594 66.0671C7.52502 66.6689 7.47746 67.2469 7.27931 67.7933ZM6.1538 65.0101C5.88035 64.6815 5.52764 64.444 5.09566 64.3014C4.66369 64.1589 4.19209 64.1312 3.67292 64.2183C3.1498 64.3094 2.70594 64.4915 2.35323 64.7646C1.99655 65.0418 1.74688 65.3783 1.59232 65.7742C1.44172 66.174 1.40606 66.6016 1.48532 67.0648C1.56458 67.528 1.73895 67.9199 2.01637 68.2485C2.28982 68.5732 2.64253 68.8107 3.06658 68.9532C3.49062 69.0958 3.97015 69.1235 4.49328 69.0324C5.01244 68.9453 5.45234 68.7632 5.80901 68.4861C6.16569 68.2089 6.42329 67.8724 6.56992 67.4686C6.72052 67.0688 6.75618 66.6372 6.67692 66.1819C6.60559 65.7346 6.43121 65.3387 6.1538 65.0101Z" fill="#FF7654"/>
<path d="M6.04771 60.9884L5.91296 58.6724L6.61442 58.6328L6.80069 61.8119L0.182379 62.1959L0.130859 61.3328L6.04771 60.9884Z" fill="#FF7654"/>
<path d="M6.24988 56.5464C5.9368 57.0373 5.51275 57.4174 4.9817 57.6866C4.45065 57.9558 3.86015 58.0746 3.21418 58.0389C2.5682 58.0073 1.99355 57.8291 1.49421 57.5084C0.994863 57.1878 0.610447 56.7681 0.348885 56.2455C0.087323 55.7269 -0.0276057 55.1568 0.000135737 54.5432C0.0318402 53.9216 0.202252 53.3674 0.519296 52.8765C0.832378 52.3855 1.25246 52.0055 1.77955 51.7402C2.30664 51.475 2.89713 51.3602 3.55104 51.3918C4.20494 51.4235 4.77958 51.5977 5.27497 51.9184C5.77035 52.2391 6.15476 52.6548 6.41633 53.1734C6.67789 53.696 6.79282 54.2661 6.76508 54.8837C6.73733 55.5013 6.56692 56.0555 6.24988 56.5464ZM5.75846 53.5851C5.56031 53.2051 5.271 52.8963 4.88262 52.6666C4.49424 52.4331 4.03849 52.3064 3.51141 52.2787C2.98036 52.2509 2.50875 52.3341 2.10452 52.5281C1.69632 52.7221 1.37928 52.9952 1.14546 53.3515C0.911639 53.7078 0.780858 54.1196 0.761043 54.5867C0.737265 55.0539 0.824452 55.4775 1.0226 55.8576C1.22076 56.2337 1.51006 56.5385 1.89448 56.7721C2.27889 57.0057 2.73861 57.1323 3.26966 57.1601C3.79675 57.1878 4.26439 57.1046 4.67258 56.9106C5.08078 56.7206 5.40575 56.4435 5.63957 56.0832C5.87339 55.723 6.00417 55.3152 6.02398 54.852C6.03984 54.3888 5.95661 53.9691 5.75846 53.5851Z" fill="#FF7654"/>
<path d="M1.86289 42.7695L8.31475 44.072L8.14434 44.9193L3.32923 43.9493L7.70444 47.0611L7.58555 47.6589L2.33054 48.8386L7.14961 49.8125L6.9792 50.6598L0.527344 49.3573L0.713607 48.4427L6.52741 47.1363L1.67663 43.6761L1.86289 42.7695Z" fill="#FF7654"/>
<path d="M7.07796 38.105C7.29196 37.9664 7.52974 37.8833 7.79131 37.8477C8.05287 37.812 8.3065 37.8397 8.56014 37.9268C8.87718 38.0377 9.13478 38.2158 9.33294 38.4653C9.53109 38.7147 9.64998 39.0195 9.68961 39.3798C9.72924 39.74 9.67772 40.128 9.53109 40.5477L8.71866 42.8835L2.45703 40.7139L3.23775 38.4692C3.38439 38.0456 3.58254 37.7051 3.82429 37.4557C4.07 37.2063 4.33552 37.0479 4.62879 36.9806C4.92205 36.9133 5.21532 36.9331 5.51651 37.0361C5.88904 37.1667 6.15853 37.3726 6.3329 37.6576C6.50728 37.9427 6.5905 38.2673 6.58257 38.6355C6.6975 38.4177 6.86395 38.2396 7.07796 38.105ZM5.44518 40.8327L5.92074 39.459C6.05549 39.0749 6.06738 38.7503 5.96037 38.4771C5.85337 38.204 5.63937 38.0139 5.32232 37.9031C5.00528 37.7922 4.71994 37.812 4.4663 37.9585C4.21267 38.105 4.01848 38.3782 3.88373 38.7701L3.41213 40.1241L5.44518 40.8327ZM8.87322 39.3362C8.76226 39.0433 8.5324 38.8374 8.19158 38.7186C7.84283 38.5999 7.52975 38.6236 7.2444 38.7938C6.95906 38.9641 6.74902 39.2491 6.61032 39.649L6.1189 41.0663L8.33028 41.8343L8.83359 40.3893C8.9723 39.9776 8.98815 39.6292 8.87322 39.3362Z" fill="#FF7654"/>
<path d="M3.86535 33.0587L4.04765 35.347L3.4532 35.0896L3.17578 32.7578L3.86535 33.0587ZM4.98294 34.0841L11.0543 36.7405L10.7056 37.5323L4.63419 34.8759L4.98294 34.0841Z" fill="#FF7654"/>
<path d="M12.1344 31.3535L10.7592 33.8951L11.8015 35.063L11.3655 35.8667L6.71289 30.6211L7.18846 29.7422L14.1198 30.7794L13.6839 31.5831L12.1344 31.3535ZM11.3972 31.2347L7.88199 30.6963L10.2559 33.3409L11.3972 31.2347Z" fill="#FF7654"/>
<path d="M15.1601 22.8242L15.7387 23.2716L13.4243 26.2764L12.8457 25.8291L15.1601 22.8242Z" fill="#FF7654"/>
<path d="M22.6292 18.4667L20.5248 20.4501L21.151 21.8872L20.4852 22.5128L17.7031 16.0794L18.4284 15.3945L24.69 18.5459L24.0282 19.1714L22.6292 18.4667ZM21.9674 18.1262L18.7969 16.5149L20.2236 19.7692L21.9674 18.1262Z" fill="#FF7654"/>
<path d="M28.1848 15.9326L25.2997 14.7053L24.4595 15.3308L26.0804 17.5004L25.3869 18.019L21.4238 12.71L23.1398 11.4313C23.5401 11.1304 23.9324 10.9483 24.3129 10.877C24.6934 10.8057 25.0381 10.8374 25.3512 10.9681C25.6643 11.0987 25.9298 11.3165 26.1557 11.6134C26.4292 11.9776 26.5639 12.3814 26.56 12.8169C26.556 13.2524 26.3777 13.676 26.0249 14.0798L29.021 15.311L28.1848 15.9326ZM24.0434 14.7766L25.0659 14.0165C25.4424 13.7354 25.6564 13.4345 25.7039 13.1059C25.7515 12.7813 25.6643 12.4646 25.4305 12.1518C25.1967 11.839 24.9192 11.6609 24.6062 11.6292C24.2931 11.5936 23.9443 11.7203 23.5639 12.0053L22.5414 12.7654L24.0434 14.7766Z" fill="#FF7654"/>
<path d="M30.0592 6.95703L30.4199 7.56275L28.8664 8.48519L31.8981 13.5725L31.153 14.0159L28.1213 8.92859L26.5599 9.85499L26.1992 9.24927L30.0592 6.95703Z" fill="#FF7654"/>
<path d="M32.5175 6.51607L33.4647 8.5193L35.6483 7.48997L35.9535 8.13528L33.7698 9.16461L34.7448 11.2272L37.186 10.0752L37.4912 10.7205L34.2652 12.2407L31.4316 6.2429L34.6576 4.72266L34.9627 5.36797L32.5175 6.51607Z" fill="#FF7654"/>
</g>
<defs>
<clipPath id="clip0">
<rect width="115" height="115" fill="white"/>
</clipPath>
</defs>
</svg>
